<svg width="12" height="12" viewBox="0 0 12 12" fill="none" xmlns="http://www.w3.org/2000/svg">
<g clip-path="url(#clip0_1_25025)">
<path d="M9.47651 6.82191C9.3273 6.87241 9.26618 6.92292 8.78082 7.40632L8.28468 7.90416L8.3458 8.02321C8.50039 8.32444 8.50039 8.65452 8.34759 8.96297C8.2703 9.11989 8.07795 9.3129 7.92155 9.39046C7.69865 9.50229 7.68067 9.5041 6.69916 9.5041H5.80574L5.76799 9.46261C5.71406 9.40489 5.71586 9.30568 5.76979 9.25518C5.81113 9.21549 5.81473 9.21549 6.64883 9.21549C7.13779 9.21549 7.52608 9.20828 7.5818 9.19746C8.0384 9.11088 8.28647 8.63108 8.10132 8.19457C8.05278 8.08273 7.89639 7.9222 7.77595 7.86087C7.72022 7.83381 7.62315 7.80135 7.56023 7.79052C7.47934 7.77609 6.95802 7.77249 5.82731 7.7779C4.34247 7.78331 4.19866 7.78692 4.08361 7.81578C3.81936 7.88432 3.57488 8.02682 3.34299 8.24688L3.20996 8.37494L4.20405 9.37242L5.19814 10.3717L6.57333 10.3663C7.93414 10.3591 7.95032 10.3591 8.09233 10.3194C8.34939 10.2472 8.58668 10.1011 8.76644 9.90814C8.85992 9.80713 8.90486 9.744 9.65447 8.65994C9.95827 8.21982 10.2261 7.81758 10.2495 7.76708C10.4149 7.40632 10.28 7.0131 9.9403 6.85798C9.81985 6.80206 9.58976 6.78403 9.47651 6.82191Z" fill="#00ACE7"/>
<path d="M2.16741 8.81735C1.79429 9.19445 1.68018 9.31833 1.68018 9.35294C1.68018 9.38755 1.94281 9.66264 2.88287 10.6081C3.96965 11.7012 4.091 11.8177 4.14353 11.8177C4.19425 11.8177 4.25402 11.7649 4.67243 11.3423C5.09265 10.9215 5.14517 10.8613 5.14517 10.8103C5.14517 10.7575 5.02925 10.6354 3.95153 9.55333C3.11653 8.71351 2.74159 8.34916 2.70718 8.34006C2.65827 8.32913 2.62567 8.35645 2.16741 8.81735Z" fill="#00ACE7"/>
<circle cx="6.24014" cy="3.59988" r="2.6" stroke="#00ACE7" stroke-width="2"/>
<circle cx="6.23984" cy="3.59983" r="2.4" fill="#00ACE7"/>
<path d="M6.34532 4.79982C6.16534 4.79982 6.00822 4.74777 5.87338 4.64512C5.73854 4.54247 5.64043 4.40512 5.57843 4.23524C5.51703 4.06536 5.50378 3.88175 5.5399 3.6844L5.89445 1.69934C5.90469 1.62849 5.93418 1.56777 5.98294 1.51645C6.0317 1.46584 6.09491 1.43982 6.17196 1.43982C6.23095 1.43982 6.28392 1.45861 6.32967 1.49548C6.37602 1.53235 6.40913 1.58006 6.42959 1.63861C6.45006 1.69717 6.45367 1.75861 6.44103 1.82367L6.31763 2.51331H6.46391L6.28693 2.60584C6.31763 2.55018 6.35857 2.50102 6.41034 2.45765C6.4615 2.41428 6.51808 2.38247 6.58008 2.36078C6.64148 2.3391 6.7071 2.32825 6.77632 2.32825C6.92019 2.32825 7.04721 2.38175 7.15797 2.48801C7.26813 2.59428 7.34879 2.73524 7.39875 2.91163C7.44872 3.08729 7.45353 3.2709 7.41199 3.46247L7.31929 3.96199C7.28558 4.12825 7.22298 4.275 7.13028 4.4015C7.03758 4.52801 6.92441 4.6256 6.78897 4.695C6.65413 4.7644 6.50604 4.7991 6.34412 4.7991L6.34532 4.79982ZM6.38385 4.23958C6.44826 4.23958 6.50725 4.22368 6.56083 4.19115C6.6144 4.15862 6.66135 4.11307 6.70168 4.05452C6.74141 3.99596 6.7679 3.92801 6.78054 3.85066L6.86542 3.36488C6.88107 3.27524 6.87745 3.19428 6.85578 3.12199C6.83411 3.0497 6.7986 2.99187 6.74984 2.94849C6.70108 2.90512 6.64209 2.88343 6.57286 2.88343C6.51146 2.88343 6.45367 2.90006 6.3995 2.93404C6.34532 2.96801 6.29957 3.01428 6.26105 3.07283C6.22252 3.13139 6.19664 3.19934 6.184 3.27669L6.09912 3.76247C6.08347 3.84922 6.08588 3.92874 6.10514 4.00319C6.1244 4.07693 6.15871 4.13476 6.20747 4.17669C6.25623 4.21861 6.31522 4.23885 6.38445 4.23885L6.38385 4.23958Z" fill="#0F121D"/>
<path d="M5.06935 4.80509C5.23132 4.96237 5.41548 5.07832 5.61509 5.15542C5.81403 5.23251 6.02641 5.27014 6.23946 5.27075C6.45251 5.27075 6.6649 5.23313 6.86384 5.15542C7.06345 5.07832 7.2476 4.96237 7.40958 4.80509C7.4163 4.79831 7.42705 4.79831 7.43444 4.80448C7.43982 4.8088 7.44117 4.81558 7.43915 4.82113C7.3585 5.03206 7.18174 5.21339 6.96667 5.3349C6.75092 5.45702 6.49486 5.51993 6.24013 5.51993C5.98541 5.51993 5.72934 5.45702 5.5136 5.3349C5.29853 5.21401 5.12177 5.03268 5.04112 4.82113C5.03776 4.81311 5.04246 4.80386 5.05187 4.80078C5.05859 4.79893 5.06599 4.80078 5.07002 4.80509H5.06935Z" fill="#0F121D"/>
</g>
<defs>
<clipPath id="clip0_1_25025">
<rect width="12" height="12" fill="white"/>
</clipPath>
</defs>
</svg>
