<svg width="12" height="13" viewBox="0 0 12 13" fill="none" xmlns="http://www.w3.org/2000/svg">
<path fill-rule="evenodd" clip-rule="evenodd" d="M4.46348 12.5H6.78691L7.91544 8.11867C7.95969 8.03015 8.02165 7.76019 7.91544 7.38844C7.80922 7.01669 6.49925 2.71945 5.85754 0.617293C5.79116 0.528781 5.60528 0.404864 5.39285 0.617293L3.46772 7.12295C3.37921 7.32211 3.25529 7.89301 3.46772 8.5834C3.68015 9.27379 4.22007 11.4821 4.46348 12.5ZM0.945147 7.38849L4.79541 0.81649C4.3086 2.43183 3.26858 5.87494 3.00305 6.72465C2.73751 7.57437 2.75964 8.09658 2.8039 8.25148L3.93242 12.4337C3.50757 12.4868 3.13582 12.1903 3.00305 12.0354C2.38347 10.8847 1.10447 8.51702 0.945147 8.25148C0.785826 7.98594 0.878763 7.56551 0.945147 7.38849ZM10.3053 7.38849L6.45501 0.81649C6.94182 2.43183 7.98184 5.87494 8.24737 6.72465C8.51291 7.57437 8.49078 8.09658 8.44652 8.25148L7.318 12.4337C7.74285 12.4868 8.1146 12.1903 8.24737 12.0354C8.86695 10.8847 10.146 8.51702 10.3053 8.25148C10.4646 7.98594 10.3717 7.56551 10.3053 7.38849Z" fill="#FFC800"/>
<path d="M5.49824 9.18645C5.19018 9.18645 4.92128 9.10501 4.69049 8.94438C4.45971 8.78374 4.29178 8.56881 4.18566 8.30298C4.08057 8.03714 4.0579 7.74982 4.11972 7.441L4.72656 4.33469C4.74407 4.22383 4.79455 4.12881 4.878 4.0485C4.96146 3.96931 5.06964 3.92859 5.20151 3.92859C5.30248 3.92859 5.39315 3.958 5.47145 4.01569C5.55078 4.07338 5.60744 4.14804 5.64247 4.23967C5.6775 4.3313 5.68368 4.42745 5.66205 4.52926L5.45084 5.60843H5.7012L5.3983 5.75323C5.45084 5.66613 5.5209 5.5892 5.60951 5.52133C5.69708 5.45346 5.79392 5.40369 5.90004 5.36975C6.00513 5.33581 6.11743 5.31884 6.23592 5.31884C6.48215 5.31884 6.69955 5.40256 6.88912 5.56884C7.07766 5.73513 7.21572 5.95572 7.30123 6.23173C7.38674 6.50662 7.39498 6.79394 7.32389 7.09371L7.16523 7.87538C7.10754 8.13556 7.00039 8.36519 6.84172 8.56316C6.68306 8.76112 6.48937 8.91383 6.25755 9.02243C6.02677 9.13103 5.77332 9.18532 5.49617 9.18532L5.49824 9.18645ZM5.56418 8.30977C5.67442 8.30977 5.77538 8.28488 5.86708 8.23398C5.95877 8.18307 6.03913 8.1118 6.10816 8.02018C6.17616 7.92855 6.22149 7.82221 6.24313 7.70117L6.3884 6.941C6.41519 6.80073 6.409 6.67404 6.37191 6.56091C6.33482 6.44779 6.27404 6.3573 6.19058 6.28942C6.10713 6.22155 6.00616 6.18761 5.88768 6.18761C5.78259 6.18761 5.68368 6.21363 5.59096 6.2668C5.49823 6.31997 5.41993 6.39236 5.35399 6.48399C5.28806 6.57562 5.24376 6.68195 5.22212 6.80299L5.07685 7.56317C5.05006 7.69891 5.05419 7.82335 5.08715 7.93986C5.12012 8.05524 5.17884 8.14574 5.2623 8.21135C5.34575 8.27696 5.44672 8.30863 5.5652 8.30863L5.56418 8.30977Z" fill="#0F121D"/>
<path d="M3.47663 9.19474C3.74276 9.48187 4.04534 9.69356 4.37332 9.8343C4.70019 9.97505 5.04915 10.0437 5.39922 10.0449C5.74928 10.0449 6.09825 9.97618 6.42512 9.8343C6.7531 9.69356 7.05568 9.48187 7.32181 9.19474C7.33286 9.18235 7.35053 9.18235 7.36267 9.19361C7.37151 9.2015 7.37372 9.21388 7.3704 9.22401C7.23789 9.6091 6.94745 9.94015 6.59407 10.162C6.23959 10.3849 5.81885 10.4998 5.40032 10.4998C4.98179 10.4998 4.56105 10.3849 4.20657 10.162C3.85319 9.94128 3.56276 9.61023 3.43025 9.22401C3.42472 9.20938 3.43245 9.19249 3.44791 9.18686C3.45896 9.18348 3.4711 9.18685 3.47773 9.19474H3.47663Z" fill="#0F121D"/>
</svg>
