<svg width="14" height="12" viewBox="0 0 14 12" fill="none" xmlns="http://www.w3.org/2000/svg">
<path d="M4.51725 1.67167C4.1827 1.71522 3.82861 1.87005 3.55266 2.09505C3.03252 2.51844 2.77366 3.2128 2.88844 3.86844C3.00321 4.51925 3.44277 5.06844 4.0435 5.31038C4.12165 5.34183 4.18514 5.36602 4.18758 5.3636C4.19247 5.36118 4.17049 5.27167 4.14363 5.16522C4.07281 4.87731 4.05571 4.31602 4.11188 3.98941C4.22177 3.32893 4.53435 2.73618 5.01786 2.26925C5.12531 2.16764 5.29625 2.02489 5.40126 1.94989L5.59173 1.81683L5.39882 1.75635C5.20346 1.69586 4.88844 1.64264 4.75169 1.64747C4.70773 1.64989 4.60272 1.65957 4.51725 1.67167Z" fill="#FFC800"/>
<path d="M9.3622 1.66935C9.28161 1.68144 9.12532 1.72015 9.01299 1.75402L8.8103 1.81693L9.01055 1.95725C9.69431 2.44112 10.1534 3.17177 10.2902 3.98951C10.3585 4.38628 10.3243 4.97419 10.2145 5.32741C10.2022 5.36612 10.2096 5.36612 10.3024 5.33467C10.737 5.18225 11.1253 4.82902 11.3402 4.39112C11.4892 4.08628 11.5331 3.89273 11.5331 3.55644C11.5331 3.21532 11.4867 3.01693 11.3402 2.72177C11.096 2.22822 10.6882 1.88709 10.1534 1.73225C9.91653 1.66451 9.57709 1.6379 9.3622 1.66935Z" fill="#FFC800"/>
<path d="M6.73712 2.21602C6.12662 2.34424 5.60159 2.69747 5.25726 3.21037C4.85433 3.80553 4.76154 4.57005 5.00329 5.25957C5.17179 5.74102 5.55519 6.20795 5.99963 6.4644C6.42454 6.70876 6.71025 6.78618 7.21331 6.78376C7.61624 6.78134 7.7945 6.74747 8.12662 6.60715C9.27191 6.12569 9.83358 4.78779 9.37204 3.63618C9.24994 3.32892 9.11074 3.12569 8.83724 2.85473C8.48315 2.50392 8.14127 2.31763 7.68217 2.22328C7.41355 2.17005 6.97399 2.16521 6.73712 2.21602Z" fill="#FFC800"/>
<path d="M3.2083 5.94667C2.7663 6.07732 2.38291 6.39909 2.1851 6.8007C2.04347 7.09587 1.99951 7.31119 1.99951 7.73458C1.99951 8.21603 2.0801 8.49425 2.27302 8.68538C2.40733 8.82087 2.51477 8.85474 2.80781 8.85474H3.06667L3.11795 8.65151C3.24249 8.14345 3.4696 7.74183 3.84322 7.36683C4.16313 7.04264 4.43175 6.86603 4.86642 6.69183L4.95922 6.65312L4.83956 6.51522C4.77363 6.4378 4.69548 6.34103 4.66618 6.2999C4.62222 6.23699 4.59292 6.22248 4.48547 6.21038C4.33162 6.19103 4.0801 6.10877 3.85055 6.00232C3.64298 5.90312 3.42076 5.88377 3.2083 5.94667Z" fill="#FFC800"/>
<path d="M10.7346 5.92974C10.6857 5.94183 10.5856 5.98054 10.5148 6.01441C10.3365 6.10635 10.0704 6.19103 9.91652 6.21038C9.80907 6.22248 9.77977 6.23699 9.73581 6.2999C9.70651 6.34103 9.62836 6.4378 9.56243 6.5128C9.45742 6.63619 9.44765 6.65554 9.48917 6.67006C9.87745 6.80796 10.2437 7.04748 10.5588 7.36683C10.9299 7.73941 11.1595 8.14828 11.284 8.65151L11.3353 8.85474H11.5893C11.9556 8.85474 12.1143 8.7749 12.2511 8.51845C12.3658 8.31038 12.4025 8.11925 12.4025 7.73458C12.4025 7.31119 12.3585 7.09587 12.2169 6.8007C11.9336 6.22006 11.2376 5.81119 10.7346 5.92974Z" fill="#FFC800"/>
<path d="M5.33292 7.36931C5.11802 7.42011 4.76393 7.60398 4.57345 7.76124C4.25844 8.02495 4.01912 8.38302 3.89946 8.77011C3.8262 9.00721 3.80422 9.90237 3.86527 10.1395C3.96295 10.5145 4.13634 10.7564 4.38786 10.8701L4.50264 10.9233H7.20105H9.89946L10.0142 10.8701C10.1901 10.7903 10.3341 10.6451 10.4196 10.4588C10.5612 10.154 10.5759 10.0427 10.5661 9.46205C10.5564 8.97092 10.5515 8.92737 10.488 8.73382C10.4074 8.49189 10.2926 8.27173 10.1412 8.07818C9.75294 7.57979 9.05941 7.25318 8.59299 7.35237C8.51973 7.36931 8.34146 7.43463 8.19739 7.49995C7.83597 7.66689 7.582 7.72495 7.21326 7.72737C6.81277 7.72737 6.5295 7.66205 6.16808 7.48302C5.86283 7.33302 5.62596 7.29915 5.33292 7.36931Z" fill="#FFC800"/>
<path d="M8.09277 9.84001H9.06176V9.04001L8.57727 8.64001L8.09277 9.04001V9.84001Z" fill="#0F121D" stroke="#0F121D"/>
</svg>
