<svg width="43" height="76" viewBox="0 0 43 76" fill="none" xmlns="http://www.w3.org/2000/svg">
<path d="M16.6274 1.74493L20.9886 5.54117L23.8502 2.56971L20.9886 0.753906L16.6274 1.74493Z" fill="url(#paint0_linear_1_18925)"/>
<path d="M22.8959 36.9005L20.9885 5.54116L23.8502 2.5697L38.0585 31.5362L42.6581 32.2795L37.3427 39.5411H29.3016L22.8959 36.9005Z" fill="url(#paint1_linear_1_18925)"/>
<path opacity="0.5" d="M22.8959 36.9005L16.3542 43.5036L0 33.4351L3.61203 30.8761L15.9668 3.22021L16.6274 1.74487L19.1312 3.92352L20.9885 5.54112L22.8959 36.9005Z" fill="url(#paint2_linear_1_18925)"/>
<path d="M29.3016 39.5411L23.7143 50.6006L16.3542 43.5036L22.8959 36.9005L29.3016 39.5411Z" fill="url(#paint3_linear_1_18925)"/>
<path d="M42.6581 32.2795L35.0249 67.2705L37.3427 39.5412L42.6581 32.2795Z" fill="url(#paint4_linear_1_18925)"/>
<path d="M29.3015 39.5411L23.7141 50.6006L23.3049 75.5231L29.4374 70.242L29.3695 68.757L35.0248 67.2705L37.3426 39.5411H29.3015Z" fill="url(#paint5_linear_1_18925)"/>
<path d="M0 33.4352L9.40334 70.4066L23.305 75.5231L23.7142 50.6006L16.3542 43.5036L0 33.4352Z" fill="url(#paint6_linear_1_18925)"/>
<path d="M29.4374 70.242L29.3015 39.5411L23.7141 50.6006L23.3049 75.5231L29.4374 70.242Z" fill="url(#paint7_linear_1_18925)"/>
<path d="M29.3016 39.5411L23.7143 50.6006L16.3542 43.5036L22.8959 36.9005L29.3016 39.5411Z" fill="url(#paint8_linear_1_18925)"/>
<path d="M22.8959 36.9005L3.61203 30.8761L0 33.4352L16.3542 43.5036L22.8959 36.9005Z" fill="url(#paint9_linear_1_18925)"/>
<path d="M22.8958 36.9005L34.5489 35.251L38.0583 31.5363L42.658 32.2795L37.3426 39.5411H29.3015L22.8958 36.9005Z" fill="url(#paint10_linear_1_18925)"/>
<path d="M20.9885 5.54116L34.549 35.251L38.0585 31.5363L23.8502 2.5697L20.9885 5.54116Z" fill="url(#paint11_linear_1_18925)"/>
<path opacity="0.15" d="M22.8958 36.9005L34.5489 35.251L37.3426 39.5411H29.3015L22.8958 36.9005Z" fill="#ED2424"/>
<path d="M20.3613 4.99448L22.8959 36.9005L21.3208 5.17989L20.8859 4.81226L20.3613 4.99448Z" fill="#FF7071"/>
<path d="M21.7939 48.7512L23.3383 50.8899L23.3049 75.5231L23.9694 50.8068L25.0994 47.8561L23.6115 50.332L21.7939 48.7512Z" fill="#FF9898"/>
<path opacity="0.15" d="M9.94847 21.7156L17.7177 11.1516L19.625 20.2306L16.6274 30.7946H4.90625L9.94847 21.7156Z" fill="#5E0D0D"/>
<path opacity="0.15" d="M16.8312 4.88098L14.4121 34.2599L20.3638 36.1301L19.421 6.7783L16.8312 4.88098Z" fill="#5E0D0D"/>
<path opacity="0.15" d="M6.60962 31.784L16.4901 34.9201L19.1312 3.92032L16.6274 1.74487L6.60962 31.784Z" fill="#5E0D0D"/>
<path opacity="0.15" d="M22.8959 36.9006L20.9885 5.54121L19.1312 3.92041L18.7502 35.5947L22.8959 36.9006Z" fill="#5E0D0D"/>
<path opacity="0.15" d="M16.8994 2.5697L7.74743 32.1436L7.72306 32.2236L3.61206 30.8761L15.9669 3.22026L16.1862 3.07001L16.8994 2.5697Z" fill="#5E0D0D"/>
<path opacity="0.15" d="M3.54395 35.8552L9.40324 70.4066L12.084 71.3977L6.63264 37.6167L3.54395 35.8552Z" fill="#5E0D0D"/>
<path opacity="0.15" d="M15.8089 72.3871L3.54395 35.8552L9.40324 70.4066L15.8089 72.3871Z" fill="#5E0D0D"/>
<path opacity="0.15" d="M23.305 75.5231L9.40334 70.4066L6.96753 60.8289L4.03147 49.2867L0 33.4352L9.184 50.0236L14.0338 58.7797L15.4614 61.3564L23.305 75.5231Z" fill="#5E0D0D"/>
<path opacity="0.15" d="M16.3541 43.5037L23.305 75.5232L8.6311 70.6272L16.3541 43.5037Z" fill="#5E0D0D"/>
<path opacity="0.15" d="M11.6519 40.5321L9.40332 70.4066L15.809 72.387L11.6519 40.5321Z" fill="#5E0D0D"/>
<path opacity="0.15" d="M0 33.4352L11.6519 40.5322L15.8091 72.387L0 33.4352Z" fill="#5E0D0D"/>
<path opacity="0.15" d="M23.6116 50.332L11.6519 40.5321L12.0841 71.3976L23.6116 50.332Z" fill="#5E0D0D"/>
<path opacity="0.15" d="M22.9639 61.8247L15.4615 61.3564L14.3609 61.2877L11.2248 61.0927L6.96755 60.8289L4.03149 49.2867L6.58147 49.6512L9.18403 50.0236L12.9602 50.5623L17.8537 51.2608L22.9639 61.8247Z" fill="#5E0D0D"/>
<path opacity="0.15" d="M23.2371 3.27136L28.4153 36.0965L22.8959 36.9005L21.3208 5.17987L23.2371 3.27136Z" fill="#5E0D0D"/>
<path opacity="0.15" d="M34.5491 35.251L25.9962 36.4674L21.3208 5.17992L23.8502 2.5697L34.5491 35.251Z" fill="#5E0D0D"/>
<path opacity="0.15" d="M25.2266 5.34619L34.5491 35.251L38.0585 31.5363L25.2266 5.34619Z" fill="#5E0D0D"/>
<path opacity="0.15" d="M16.3542 43.5036L22.8959 36.9005L23.7143 50.6006L16.3542 43.5036Z" fill="#5E0D0D"/>
<path opacity="0.15" d="M25.9859 41.2482L17.1265 44.3827L22.896 36.9005L25.9859 41.2482Z" fill="#5E0D0D"/>
<path opacity="0.15" d="M23.6232 47.685L20.9885 40.2012L22.8959 36.9005L24.8956 40.4218L23.6232 47.685Z" fill="#5E0D0D"/>
<path opacity="0.15" d="M29.3015 39.5411L25.0994 47.8561L22.8958 36.9005L29.3015 39.5411Z" fill="#5E0D0D"/>
<path opacity="0.15" d="M23.7141 50.6006L29.3015 39.5411L22.8958 36.9005L23.7141 50.6006Z" fill="#5E0D0D"/>
<path opacity="0.25" d="M22.8959 36.9005L16.3542 43.5036L23.7143 50.6006L29.3016 39.5411L22.8959 36.9005Z" fill="url(#paint12_linear_1_18925)"/>
<defs>
<linearGradient id="paint0_linear_1_18925" x1="20.0183" y1="0.020232" x2="20.7318" y2="4.47805" gradientUnits="userSpaceOnUse">
<stop stop-color="#C92C2D"/>
<stop offset="1" stop-color="#FF2222"/>
</linearGradient>
<linearGradient id="paint1_linear_1_18925" x1="32.6588" y1="36.2354" x2="30.0567" y2="1.50708" gradientUnits="userSpaceOnUse">
<stop stop-color="#CA2021"/>
<stop offset="0.5" stop-color="#FB7374"/>
<stop offset="1" stop-color="#CC2526"/>
</linearGradient>
<linearGradient id="paint2_linear_1_18925" x1="10.0721" y1="22.0624" x2="21.6096" y2="22.7121" gradientUnits="userSpaceOnUse">
<stop stop-color="#EE5E5F"/>
<stop offset="1" stop-color="#BE0000"/>
</linearGradient>
<linearGradient id="paint3_linear_1_18925" x1="16.3544" y1="43.7506" x2="29.3016" y2="43.7506" gradientUnits="userSpaceOnUse">
<stop stop-color="#EE5E5F"/>
<stop offset="1" stop-color="#E11717"/>
</linearGradient>
<linearGradient id="paint4_linear_1_18925" x1="35.0255" y1="49.7752" x2="42.6576" y2="49.7752" gradientUnits="userSpaceOnUse">
<stop stop-color="#CA2224"/>
<stop offset="1" stop-color="#F03C3E"/>
</linearGradient>
<linearGradient id="paint5_linear_1_18925" x1="23.3048" y1="57.5327" x2="37.3423" y2="57.5327" gradientUnits="userSpaceOnUse">
<stop stop-color="#CA1D1F"/>
<stop offset="1" stop-color="#F45C5E"/>
</linearGradient>
<linearGradient id="paint6_linear_1_18925" x1="0" y1="54.4793" x2="23.7138" y2="54.4793" gradientUnits="userSpaceOnUse">
<stop stop-color="#CE282A"/>
<stop offset="1" stop-color="#BC2B2D"/>
</linearGradient>
<linearGradient id="paint7_linear_1_18925" x1="31.305" y1="58.5169" x2="19.2213" y2="56.9858" gradientUnits="userSpaceOnUse">
<stop stop-color="#C12729"/>
<stop offset="1" stop-color="#EF4344"/>
</linearGradient>
<linearGradient id="paint8_linear_1_18925" x1="24.9232" y1="34.0915" x2="19.8559" y2="45.665" gradientUnits="userSpaceOnUse">
<stop stop-color="#D72223"/>
<stop offset="1" stop-color="#DA2E2F"/>
</linearGradient>
<linearGradient id="paint9_linear_1_18925" x1="12.1086" y1="33.4301" x2="8.71162" y2="39.1849" gradientUnits="userSpaceOnUse">
<stop stop-color="#C81D1E"/>
<stop offset="1" stop-color="#FF797A"/>
</linearGradient>
<linearGradient id="paint10_linear_1_18925" x1="31.3412" y1="31.5274" x2="37.4288" y2="39.8913" gradientUnits="userSpaceOnUse">
<stop stop-color="#CA2223"/>
<stop offset="1" stop-color="#F55354"/>
</linearGradient>
<linearGradient id="paint11_linear_1_18925" x1="36.4042" y1="33.608" x2="16.4797" y2="6.37857" gradientUnits="userSpaceOnUse">
<stop stop-color="#C61D1E"/>
<stop offset="0.5" stop-color="#ED4D4F"/>
<stop offset="1" stop-color="#CF2829"/>
</linearGradient>
<linearGradient id="paint12_linear_1_18925" x1="16.3544" y1="43.7506" x2="29.3016" y2="43.7506" gradientUnits="userSpaceOnUse">
<stop stop-color="#DF1314"/>
<stop offset="1" stop-color="#EE5E5F"/>
</linearGradient>
</defs>
</svg>
