<svg width="40" height="60" viewBox="0 0 40 60" fill="none" xmlns="http://www.w3.org/2000/svg">
<path d="M33.6843 26.765L26.2867 39.2548L10.4388 25.2548L0.818359 16.7592L18.3018 0.0197754L26.6547 6.41792L33.6843 26.765Z" fill="url(#paint0_linear_1_18005)"/>
<path d="M18.3042 0.0208938L24.0802 0L31.4325 5.55427L26.6536 6.41672L18.3042 0.0208938Z" fill="url(#paint1_linear_1_18005)"/>
<path d="M31.4324 5.55432L39.6054 26.5595L33.6832 26.765L26.6536 6.41677L31.4324 5.55432Z" fill="url(#paint2_linear_1_18005)"/>
<path d="M26.2867 39.2548L21.3767 59.9989L9.99189 53.675L0.818359 16.7592L10.4388 25.2548L26.2867 39.2548Z" fill="url(#paint3_linear_1_18005)"/>
<path d="M25.8434 59.9779L21.3779 60L26.2891 39.2547L33.6832 26.7649L39.6054 26.5594L36.6966 42.6604L25.8434 59.9779Z" fill="url(#paint4_linear_1_18005)"/>
<path opacity="0.5" d="M18.3018 0.0197754L15.0644 10.404L9.38133 8.56534L0.818359 16.7592L18.3018 0.0197754Z" fill="url(#paint5_linear_1_18005)"/>
<path d="M15.0644 10.404L10.4388 25.2548L10.4249 25.2919L9.99189 53.675L0.818359 16.7592L9.38133 8.56531L15.0644 10.404Z" fill="url(#paint6_linear_1_18005)"/>
<path opacity="0.5" d="M18.3019 0.0197754L15.0854 10.4086L18.4192 20.3587L25.1272 14.5003L26.6536 6.41676L18.3019 0.0197754Z" fill="url(#paint7_linear_1_18005)"/>
<path d="M33.6832 26.765L25.1272 14.5003L26.6536 6.41675L33.6832 26.765Z" fill="url(#paint8_linear_1_18005)"/>
<path d="M33.683 26.7649L18.4189 20.3586L25.127 14.5002L33.683 26.7649Z" fill="url(#paint9_linear_1_18005)"/>
<path opacity="0.5" d="M33.6831 26.7649L19.2571 27.2443L10.4387 25.2548L18.419 20.3586L33.6831 26.7649Z" fill="url(#paint10_linear_1_18005)"/>
<path opacity="0.75" d="M10.4387 25.2548L18.419 20.3587L15.0853 10.4086L10.4387 25.2548Z" fill="url(#paint11_linear_1_18005)"/>
<path d="M10.4387 25.2548L15.2884 29.3349L19.2571 27.2443L10.4387 25.2548Z" fill="#F6E9FF"/>
<path opacity="0.25" d="M33.6831 26.7649L26.289 39.2548L10.4387 25.2548L19.2571 27.2443L33.6831 26.7649Z" fill="url(#paint12_linear_1_18005)"/>
<path opacity="0.5" d="M21.3778 60L10.4387 25.2548L18.0278 44.477L21.3778 60Z" fill="white"/>
<path d="M26.6535 6.41676L21.7724 2.28675L18.3018 0.0197754L26.6535 6.41676Z" fill="url(#paint13_linear_1_18005)"/>
<path d="M26.6536 6.41675L24.5398 13.1643L25.1271 14.5003L26.6536 6.41675Z" fill="url(#paint14_linear_1_18005)"/>
<path d="M24.5399 13.1642L25.1272 14.5003L18.4192 20.3587L15.0854 10.4086L24.5399 13.1642Z" fill="url(#paint15_linear_1_18005)"/>
<path opacity="0.45" d="M0.818359 16.7592L10.4388 25.2548L3.99654 29.9687L0.818359 16.7592Z" fill="url(#paint16_linear_1_18005)"/>
<path d="M15.083 10.4098L10.4388 25.2548L0.818359 16.7592L9.38133 8.56531L15.0644 10.404L15.083 10.4098Z" fill="url(#paint17_linear_1_18005)"/>
<path opacity="0.5" d="M10.4387 25.2548L15.2884 29.3349L15.4556 37.899L10.4387 25.2548Z" fill="url(#paint18_linear_1_18005)"/>
<path opacity="0.5" d="M10.4388 25.2548L3.99658 29.9686L10.2009 39.0644L10.4388 25.2548Z" fill="url(#paint19_linear_1_18005)"/>
<path d="M10.4387 25.2548C11.639 24.3598 12.939 23.5252 14.2646 22.7057C15.5995 21.892 16.9587 21.0946 18.419 20.3586C17.2199 21.2548 15.9187 22.0882 14.5931 22.9077C13.2582 23.7202 11.8978 24.5177 10.4387 25.2548Z" fill="url(#paint20_linear_1_18005)"/>
<path d="M26.289 39.2548C24.8891 38.1219 23.531 36.9704 22.1799 35.8166C20.8276 34.6628 19.5101 33.495 18.1729 32.3354C16.867 31.1619 15.5449 29.9965 14.2542 28.8172L12.3261 27.0447C11.697 26.448 11.0551 25.856 10.4387 25.2548C11.1421 25.8201 11.8212 26.3946 12.5142 26.9646L14.549 28.6918C15.9001 29.8456 17.2199 31.0133 18.556 32.1729C19.8607 33.3465 21.1851 34.5119 22.4735 35.6924C23.7632 36.8717 25.047 38.0545 26.289 39.2548Z" fill="url(#paint21_linear_1_18005)"/>
<path d="M15.2886 29.3348C15.6716 29.0992 16.0628 28.8705 16.454 28.6407L16.4308 28.6639L16.584 28.2484L16.6142 28.1659L16.7419 28.2112L17.0843 28.3319L16.9438 28.3377L19.1319 27.1549L19.1771 27.1305L19.2456 27.1271C21.6473 27.0214 24.0512 26.939 26.4575 26.8728C27.66 26.8392 28.8637 26.8183 30.0674 26.7974C31.2712 26.773 32.476 26.7661 33.6821 26.7649C32.483 26.8438 31.2839 26.917 30.0837 26.9727C28.8835 27.033 27.6832 27.0911 26.4818 27.1375C24.0791 27.2315 21.6739 27.3093 19.2677 27.3638L19.3814 27.336L17.0982 28.4492L17.0274 28.484L16.9578 28.455L16.6304 28.3192L16.7883 28.2809L16.5793 28.6871L16.5712 28.7022L16.5561 28.7103C16.1348 28.9204 15.7157 29.1294 15.2886 29.3348Z" fill="white"/>
<path opacity="0.72" d="M10.4387 25.2548L15.4556 37.899L15.2884 29.3337L16.4875 28.6965L16.6616 28.2124C16.6616 28.2124 16.9936 28.3483 17.0005 28.3552C17.0087 28.3622 19.293 27.2049 19.293 27.2049L18.4201 20.3575L10.4387 25.2548Z" fill="white"/>
<path d="M33.6832 26.7649L26.2903 39.2547L36.6977 42.6604L39.6078 26.5594C39.6054 26.5594 33.6809 26.7649 33.6832 26.7649Z" fill="url(#paint22_linear_1_18005)"/>
<path d="M26.6536 6.4167L28.9565 6.02087L27.1121 6.17526L26.6536 6.4167Z" fill="url(#paint23_linear_1_18005)"/>
<path d="M5.53345 35.7318L5.76676 36.6802L16.0186 43.0342L14.9264 39.5089L5.53345 35.7318Z" fill="url(#paint24_linear_1_18005)"/>
<path d="M16.3506 40.2635L18.0279 44.4771L24.079 48.6327L25.4835 42.6617L16.3506 40.2635Z" fill="url(#paint25_linear_1_18005)"/>
<defs>
<linearGradient id="paint0_linear_1_18005" x1="-5.70261" y1="18.1446" x2="31.655" y2="20.137" gradientUnits="userSpaceOnUse">
<stop stop-color="#9435F8"/>
<stop offset="1" stop-color="#9BBDF8"/>
</linearGradient>
<linearGradient id="paint1_linear_1_18005" x1="18.3041" y1="3.20857" x2="31.4323" y2="3.20857" gradientUnits="userSpaceOnUse">
<stop stop-color="#9BBDF8"/>
<stop offset="1" stop-color="#1A74C3"/>
</linearGradient>
<linearGradient id="paint2_linear_1_18005" x1="30.0381" y1="4.63705" x2="35.7085" y2="26.3736" gradientUnits="userSpaceOnUse">
<stop stop-color="#34A6EC"/>
<stop offset="0.5" stop-color="#D0CCDB"/>
<stop offset="1" stop-color="#8BBFF9"/>
</linearGradient>
<linearGradient id="paint3_linear_1_18005" x1="0.818905" y1="38.3788" x2="26.2869" y2="38.3788" gradientUnits="userSpaceOnUse">
<stop stop-color="#6E41B0"/>
<stop offset="1" stop-color="#D8A0F9"/>
</linearGradient>
<linearGradient id="paint4_linear_1_18005" x1="27.1237" y1="56.5444" x2="35.3005" y2="27.3732" gradientUnits="userSpaceOnUse">
<stop stop-color="#34A6EC"/>
<stop offset="0.2821" stop-color="#D0CCDB"/>
<stop offset="1" stop-color="#8BBFF9"/>
</linearGradient>
<linearGradient id="paint5_linear_1_18005" x1="8.7111" y1="11.1633" x2="10.8347" y2="4.48913" gradientUnits="userSpaceOnUse">
<stop stop-color="#90CAEC"/>
<stop offset="1" stop-color="#DFB3F9"/>
</linearGradient>
<linearGradient id="paint6_linear_1_18005" x1="0.818905" y1="31.1202" x2="15.0647" y2="31.1202" gradientUnits="userSpaceOnUse">
<stop stop-color="#6E41B0"/>
<stop offset="1" stop-color="#D8A0F9"/>
</linearGradient>
<linearGradient id="paint7_linear_1_18005" x1="15.0857" y1="10.1895" x2="26.6539" y2="10.1895" gradientUnits="userSpaceOnUse">
<stop stop-color="#90CAEC"/>
<stop offset="1" stop-color="#DFB3F9"/>
</linearGradient>
<linearGradient id="paint8_linear_1_18005" x1="30.366" y1="24.8154" x2="26.6105" y2="8.47099" gradientUnits="userSpaceOnUse">
<stop stop-color="#72BBE8"/>
<stop offset="0.5" stop-color="#D0CCDB"/>
<stop offset="1" stop-color="#8BBFF9"/>
</linearGradient>
<linearGradient id="paint9_linear_1_18005" x1="25.6262" y1="25.2103" x2="28.9108" y2="12.4509" gradientUnits="userSpaceOnUse">
<stop stop-color="#ACD5EC"/>
<stop offset="1" stop-color="white"/>
</linearGradient>
<linearGradient id="paint10_linear_1_18005" x1="18.5017" y1="29.0387" x2="23.9583" y2="24.3949" gradientUnits="userSpaceOnUse">
<stop stop-color="#90CAEC"/>
<stop offset="1" stop-color="#DFB3F9"/>
</linearGradient>
<linearGradient id="paint11_linear_1_18005" x1="12.4242" y1="17.8496" x2="21.7145" y2="17.3563" gradientUnits="userSpaceOnUse">
<stop stop-color="#72BBE8"/>
<stop offset="0.5" stop-color="#D0CCDB"/>
<stop offset="1" stop-color="#8BBFF9"/>
</linearGradient>
<linearGradient id="paint12_linear_1_18005" x1="28.2036" y1="32.1108" x2="19.894" y2="27.9193" gradientUnits="userSpaceOnUse">
<stop stop-color="#6ABBEC"/>
<stop offset="1" stop-color="white"/>
</linearGradient>
<linearGradient id="paint13_linear_1_18005" x1="22.0895" y1="4.60479" x2="22.9498" y2="1.53557" gradientUnits="userSpaceOnUse">
<stop stop-color="#ACD5EC"/>
<stop offset="1" stop-color="white"/>
</linearGradient>
<linearGradient id="paint14_linear_1_18005" x1="24.972" y1="13.3384" x2="26.7773" y2="6.89789" gradientUnits="userSpaceOnUse">
<stop stop-color="#BFDBEC"/>
<stop offset="1" stop-color="white"/>
</linearGradient>
<linearGradient id="paint15_linear_1_18005" x1="20.0727" y1="12.6885" x2="18.4096" y2="24.2298" gradientUnits="userSpaceOnUse">
<stop stop-color="#72BBE8"/>
<stop offset="0.5" stop-color="#D0CCDB"/>
<stop offset="1" stop-color="#8BBFF9"/>
</linearGradient>
<linearGradient id="paint16_linear_1_18005" x1="4.1035" y1="17.4914" x2="7.06013" y2="27.1004" gradientUnits="userSpaceOnUse">
<stop stop-color="#11699E"/>
<stop offset="1" stop-color="#BB52F9"/>
</linearGradient>
<linearGradient id="paint17_linear_1_18005" x1="0.818905" y1="16.9099" x2="15.0833" y2="16.9099" gradientUnits="userSpaceOnUse">
<stop stop-color="#90CAEC"/>
<stop offset="1" stop-color="#DFB3F9"/>
</linearGradient>
<linearGradient id="paint18_linear_1_18005" x1="13.1318" y1="31.429" x2="15.7628" y2="29.3176" gradientUnits="userSpaceOnUse">
<stop stop-color="#6E41B0"/>
<stop offset="1" stop-color="#D8A0F9"/>
</linearGradient>
<linearGradient id="paint19_linear_1_18005" x1="9.71099" y1="32.4198" x2="14.1524" y2="28.8557" gradientUnits="userSpaceOnUse">
<stop stop-color="#6E41B0"/>
<stop offset="1" stop-color="#D8A0F9"/>
</linearGradient>
<linearGradient id="paint20_linear_1_18005" x1="10.2739" y1="22.8067" x2="18.5835" y2="22.8067" gradientUnits="userSpaceOnUse">
<stop stop-color="#E7D7FF"/>
<stop offset="1" stop-color="#D8A0F9"/>
</linearGradient>
<linearGradient id="paint21_linear_1_18005" x1="10.2473" y1="32.2547" x2="26.4805" y2="32.2547" gradientUnits="userSpaceOnUse">
<stop stop-color="#E7D7FF"/>
<stop offset="1" stop-color="#D8A0F9"/>
</linearGradient>
<linearGradient id="paint22_linear_1_18005" x1="31.2118" y1="42.5636" x2="35.2002" y2="20.3735" gradientUnits="userSpaceOnUse">
<stop stop-color="#A8D2EC"/>
<stop offset="0.2821" stop-color="#D0CCDB"/>
<stop offset="1" stop-color="#8BBFF9"/>
</linearGradient>
<linearGradient id="paint23_linear_1_18005" x1="27.727" y1="6.65331" x2="27.9213" y2="5.57245" gradientUnits="userSpaceOnUse">
<stop stop-color="#A8D2EC"/>
<stop offset="0.2821" stop-color="#D0CCDB"/>
<stop offset="1" stop-color="#8BBFF9"/>
</linearGradient>
<linearGradient id="paint24_linear_1_18005" x1="10.254" y1="42.2872" x2="11.5536" y2="35.0567" gradientUnits="userSpaceOnUse">
<stop stop-color="white"/>
<stop offset="1" stop-color="#D6E7F9"/>
</linearGradient>
<linearGradient id="paint25_linear_1_18005" x1="19.7023" y1="48.2197" x2="21.3771" y2="38.9016" gradientUnits="userSpaceOnUse">
<stop stop-color="white"/>
<stop offset="1" stop-color="#D6E7F9"/>
</linearGradient>
</defs>
</svg>
