<svg width="48" height="60" viewBox="0 0 48 60" fill="none" xmlns="http://www.w3.org/2000/svg">
<path d="M12.8247 25.9598L13.7548 29.2373L14.837 33.0449L15.8811 36.7215L16.4412 38.6877L17.2823 41.6592L17.7874 43.4305L18.8086 47.027L20.0677 51.4617L21.964 58.1347L27.5599 59.9999L33.8618 27.8211L12.8247 25.9598Z" fill="url(#paint0_linear_1_18596)"/>
<path d="M-2.67029e-05 14.1761L1.84425 18.4118V18.4138L3.96557 23.2845V23.2865L6.33592 28.7323L7.34908 31.0587L9.67243 36.4005L10.4915 38.2758V38.2788L13.802 45.8839L22.0093 58.1017L17.3846 41.8223L17.3466 41.6823L16.7215 39.4859L15.8564 36.4395L14.9832 33.367V33.364L13.8 29.2064V29.2034L12.8699 25.9269L-2.67029e-05 14.1761Z" fill="url(#paint1_linear_1_18596)"/>
<path d="M27.56 60L33.1279 50.9827L34.024 49.5265L38.1096 42.8875L39.7859 40.1641L44.0365 33.258V33.255L46.946 28.5273V28.5253L47.7261 27.2611L39.0528 21.4783L33.861 27.8202L27.56 60Z" fill="url(#paint2_linear_1_18596)"/>
<path d="M18.3715 15.1083L12.8467 25.9849L33.8618 27.8212L32.8927 18.1697L18.3715 15.1083Z" fill="url(#paint3_linear_1_18596)"/>
<path d="M9.51225 0L18.3716 15.1083L12.8698 25.9559L-0.000173569 14.1761L9.51225 0Z" fill="url(#paint4_linear_1_18596)"/>
<path d="M32.8929 18.1697L34.2261 12.5899L9.51237 0L18.3717 15.1083L32.8929 18.1697Z" fill="url(#paint5_linear_1_18596)"/>
<path d="M47.749 27.232L34.226 12.5898L32.8928 18.1697L47.749 27.232Z" fill="url(#paint6_linear_1_18596)"/>
<path d="M33.8619 27.8211L47.749 27.232L32.8928 18.1697L33.8619 27.8211Z" fill="url(#paint7_linear_1_18596)"/>
<g opacity="0.1">
<path d="M13.7998 29.2034L14.882 33.0119L32.2676 36.0604L33.0217 32.1978L13.7998 29.2034Z" fill="black"/>
<path d="M17.3275 41.6252L17.8326 43.3975L30.6515 44.4547L30.8945 43.2055L17.3275 41.6252Z" fill="black"/>
<path d="M18.8537 46.993L20.1129 51.4287L28.9832 52.9079L29.2612 51.2807L18.8537 46.993Z" fill="black"/>
</g>
<path opacity="0.15" d="M1.84418 18.4138L3.9655 23.2845V23.2865L14.9832 33.3641L13.8 29.2064V29.2034L1.84418 18.4138Z" fill="black"/>
<path opacity="0.15" d="M6.33588 28.7323L7.34903 31.0586L16.7214 39.4859L15.8563 36.4395L6.33588 28.7323Z" fill="black"/>
<path opacity="0.15" d="M17.3465 41.6822L9.03429 34.9142L10.0074 37.1645L17.7876 43.4305L17.3465 41.6822Z" fill="black"/>
<path d="M34.2259 12.5898L32.8927 18.1697L36.5112 20.331L34.2259 12.5898Z" fill="url(#paint8_linear_1_18596)"/>
<path d="M32.8929 18.1697L34.2261 12.5899L9.51237 0L32.8929 18.1697Z" fill="url(#paint9_linear_1_18596)"/>
<path opacity="0.1" d="M9.51237 0L12.8699 25.9559L-6.00815e-05 14.1761L9.51237 0Z" fill="url(#paint10_linear_1_18596)"/>
<path d="M12.8467 25.9849L12.8617 26.0349L33.8618 27.8212L12.8697 25.9269L12.8467 25.9849Z" fill="#085400"/>
<path d="M34.226 12.5899L47.749 27.2321L34.273 12.8349L32.8928 18.1697L34.156 12.7649L9.51229 0L34.226 12.5899Z" fill="#F0FFEE"/>
<path opacity="0.1" d="M12.8468 25.9849L18.3716 15.1082L13.3668 6.60596L-0.000173569 14.1761L12.8468 25.9849Z" fill="#D8FFD4"/>
<path opacity="0.15" d="M9.51227 0L14.7271 8.89833L12.8468 25.9849L-0.000159264 14.1761L9.51227 0Z" fill="#0C6D01"/>
<path d="M12.8469 25.9849C13.559 28.6763 14.2981 31.3587 15.0422 34.0411L17.3036 42.0783L19.6229 50.0995L20.8031 54.1041L22.0093 58.1017L20.9251 54.0701L19.8149 50.0455L17.5526 42.0083L15.2333 33.9871C14.4501 31.3157 13.662 28.6463 12.8469 25.9849Z" fill="#072D01"/>
<path opacity="0.1" d="M32.2676 36.0603L44.0364 33.2579V33.2549L46.9458 28.5272L33.0217 32.1978L32.2676 36.0603Z" fill="black"/>
<path opacity="0.1" d="M30.6515 44.4547L38.1096 42.8875L39.7859 40.1641L30.8946 43.2055L30.6515 44.4547Z" fill="black"/>
<path opacity="0.1" d="M33.1278 50.9827L34.0239 49.5265L29.2612 51.2808L28.9832 52.908L33.1278 50.9827Z" fill="black"/>
<path opacity="0.5" d="M33.8618 27.8212L32.8927 18.1697L18.3715 15.1083L33.8618 27.8212Z" fill="url(#paint11_linear_1_18596)"/>
<path d="M32.8928 18.1697L18.3716 15.1082L14.7271 8.89832L32.8928 18.1697Z" fill="url(#paint12_linear_1_18596)"/>
<path opacity="0.25" d="M32.8928 18.1697L18.3716 15.1083L12.8468 25.9849L32.8928 18.1697Z" fill="url(#paint13_linear_1_18596)"/>
<path d="M33.8618 27.8211L32.8927 18.1697L36.5112 20.331L33.8618 27.8211Z" fill="url(#paint14_linear_1_18596)"/>
<defs>
<linearGradient id="paint0_linear_1_18596" x1="24.5157" y1="56.7531" x2="23.1167" y2="21.1274" gradientUnits="userSpaceOnUse">
<stop stop-color="#075200"/>
<stop offset="0.5056" stop-color="#099109"/>
<stop offset="1" stop-color="#00450D"/>
</linearGradient>
<linearGradient id="paint1_linear_1_18596" x1="8.56704" y1="23.9519" x2="12.6705" y2="44.4693" gradientUnits="userSpaceOnUse">
<stop stop-color="#075200"/>
<stop offset="1" stop-color="#00450D"/>
</linearGradient>
<linearGradient id="paint2_linear_1_18596" x1="40.8912" y1="54.0891" x2="29.4207" y2="17.1596" gradientUnits="userSpaceOnUse">
<stop stop-color="#075200"/>
<stop offset="0.5056" stop-color="#099109"/>
<stop offset="1" stop-color="#00450D"/>
</linearGradient>
<linearGradient id="paint3_linear_1_18596" x1="27.057" y1="14.8973" x2="22.4836" y2="29.7262" gradientUnits="userSpaceOnUse">
<stop stop-color="#32C424"/>
<stop offset="1" stop-color="#0B6B1D"/>
</linearGradient>
<linearGradient id="paint4_linear_1_18596" x1="8.82585" y1="3.84864" x2="9.4476" y2="22.5008" gradientUnits="userSpaceOnUse">
<stop stop-color="#A2D934"/>
<stop offset="0.4945" stop-color="#2EA833"/>
<stop offset="1" stop-color="#0D7A21"/>
</linearGradient>
<linearGradient id="paint5_linear_1_18596" x1="18.3828" y1="16.5297" x2="21.4915" y2="8.3227" gradientUnits="userSpaceOnUse">
<stop stop-color="#9EF046"/>
<stop offset="1" stop-color="#F0FF73"/>
</linearGradient>
<linearGradient id="paint6_linear_1_18596" x1="39.7188" y1="23.2524" x2="41.1177" y2="19.5686" gradientUnits="userSpaceOnUse">
<stop stop-color="#A4F053"/>
<stop offset="1" stop-color="#F3FF87"/>
</linearGradient>
<linearGradient id="paint7_linear_1_18596" x1="40.7137" y1="18.0686" x2="39.833" y2="28.4612" gradientUnits="userSpaceOnUse">
<stop stop-color="#26C718"/>
<stop offset="1" stop-color="#0D7A21"/>
</linearGradient>
<linearGradient id="paint8_linear_1_18596" x1="35.7114" y1="16.1235" x2="32.9432" y2="18.8448" gradientUnits="userSpaceOnUse">
<stop offset="0.00195994" stop-color="#F8F8F8"/>
<stop offset="1" stop-color="#F8FF00"/>
</linearGradient>
<linearGradient id="paint9_linear_1_18596" x1="24.2441" y1="6.09525" x2="19.2353" y2="11.0192" gradientUnits="userSpaceOnUse">
<stop offset="0.00195994" stop-color="#F8F8F8"/>
<stop offset="1" stop-color="#F8FF00"/>
</linearGradient>
<linearGradient id="paint10_linear_1_18596" x1="5.99914" y1="22.9504" x2="8.98348" y2="3.17906" gradientUnits="userSpaceOnUse">
<stop offset="0.00195994" stop-color="#F8F8F8"/>
<stop offset="0.1232" stop-color="#F4F6F4"/>
<stop offset="0.2496" stop-color="#E8F1E7"/>
<stop offset="0.3784" stop-color="#D4E8D2"/>
<stop offset="0.5089" stop-color="#B8DCB5"/>
<stop offset="0.6406" stop-color="#95CD8F"/>
<stop offset="0.7734" stop-color="#69B961"/>
<stop offset="0.9046" stop-color="#36A32C"/>
<stop offset="1" stop-color="#0C9100"/>
</linearGradient>
<linearGradient id="paint11_linear_1_18596" x1="32.304" y1="14.1262" x2="24.3212" y2="23.5942" gradientUnits="userSpaceOnUse">
<stop stop-color="white"/>
<stop offset="0.5726" stop-color="#F8F8F8"/>
</linearGradient>
<linearGradient id="paint12_linear_1_18596" x1="21.216" y1="18.6655" x2="25.4594" y2="10.272" gradientUnits="userSpaceOnUse">
<stop stop-color="white"/>
<stop offset="0.5726" stop-color="#F8F8F8"/>
</linearGradient>
<linearGradient id="paint13_linear_1_18596" x1="19.0315" y1="12.5104" x2="25.0935" y2="27.6187" gradientUnits="userSpaceOnUse">
<stop stop-color="#FFFF31"/>
<stop offset="0.1133" stop-color="#FEFE53"/>
<stop offset="0.3622" stop-color="#FBFBAA"/>
<stop offset="0.5726" stop-color="#F8F8F8"/>
</linearGradient>
<linearGradient id="paint14_linear_1_18596" x1="30.5021" y1="18.7224" x2="34.0926" y2="22.8258" gradientUnits="userSpaceOnUse">
<stop stop-color="#33B320"/>
<stop offset="0.1051" stop-color="#52BE42"/>
<stop offset="0.3386" stop-color="#A3DA9A"/>
<stop offset="0.5726" stop-color="#F8F8F8"/>
</linearGradient>
</defs>
</svg>
