<svg width="47" height="60" viewBox="0 0 47 60" fill="none" xmlns="http://www.w3.org/2000/svg">
<g clip-path="url(#clip0_1_18175)">
<path d="M32.1193 30.7485L31.7081 34.372L31.6354 34.9966L31.1002 39.6916L30.8558 41.8431L30.4959 45.0125V45.0148L30.1133 48.3582L29.9917 49.4179L29.7402 51.6265L29.6496 52.4335L23.8139 52.0747L21.1117 51.909L15.034 51.5419L13.6406 45.1424L13.1376 42.8586L11.4141 35.024L10.9647 32.9893V32.9869L10.5511 31.1108L9.65 27.0141L9.20898 25.014L12.6823 25.38H12.6847L14.7813 25.6005H14.7825L21.4109 26.299L22.7673 26.4408L29.6496 27.1643L32.1193 30.7485Z" fill="url(#paint0_linear_1_18175)"/>
<path d="M32.1194 23.0426L29.6497 27.1643L32.1194 30.7485L35.489 27.7031L32.1194 23.0426Z" fill="#C27337"/>
<path d="M32.1193 23.0425L29.6496 27.1643L16.8124 25.8138L16.2486 25.7542H16.2474L9.20898 25.014L11.5035 21.8232L11.6715 21.5896L12.1602 20.909L13.1936 19.4727L13.9994 18.3522L14.4416 17.736L14.9041 17.0924L15.5549 16.1865L17.9686 12.8276L22.0116 10.4985L24.4098 11.2638H24.4122L28.2991 12.5046L29.4494 12.8717H29.4517L29.8737 13.0076L29.9023 13.1363L30.0131 13.625L30.5054 15.8301L30.6187 16.3379L30.6997 16.7014L31.7641 21.4537L31.8428 21.8029L32.1193 23.0425Z" fill="url(#paint1_linear_1_18175)"/>
<path d="M16.6216 9.42346L17.9685 12.8276L22.0115 10.4986L20.4394 7.27319L16.6216 9.42346Z" fill="#C27337"/>
<path d="M9.88354 6.73562L16.6216 9.42345L20.4394 7.27318L19.5419 1.35876L9.88354 6.73562Z" fill="url(#paint2_linear_1_18175)"/>
<path d="M0 17.6669L9.88359 6.7356L16.6216 9.42343L17.9685 12.8276L9.20895 25.014L0 17.6669Z" fill="url(#paint3_linear_1_18175)"/>
<path d="M15.0495 51.5371L8.08614 47.7741L0 17.6669L9.20895 25.014L15.0495 51.5371Z" fill="url(#paint4_linear_1_18175)"/>
<path d="M24.9319 59.9999L22.287 59.522L8.08618 47.7742L15.0495 51.5371L29.6496 52.4335L24.9319 59.9999Z" fill="url(#paint5_linear_1_18175)"/>
<path d="M40.7049 47.6943L24.9319 59.9999L29.6496 52.4335L40.7049 47.6943Z" fill="url(#paint6_linear_1_18175)"/>
<path d="M35.489 27.7031L36.11 49.6706L40.705 47.6944L46.2952 19.3798L35.489 27.7031Z" fill="url(#paint7_linear_1_18175)"/>
<path d="M29.8735 13.0076L46.2949 19.3797L35.4888 27.703L32.1192 23.0425L29.8735 13.0076Z" fill="url(#paint8_linear_1_18175)"/>
<path d="M19.542 1.35876L35.2148 4.48523L46.2951 19.3797L29.8737 13.0076L22.0117 10.4986L20.4395 7.27318L19.542 1.35876Z" fill="url(#paint9_linear_1_18175)"/>
<path d="M29.7236 6.9895L29.8738 13.0076L22.0117 10.4986L29.7236 6.9895Z" fill="#C27337"/>
<path d="M35.2148 4.48523L22.0117 10.4986L20.4395 7.27318L19.542 1.35876L35.2148 4.48523Z" fill="url(#paint10_linear_1_18175)"/>
<path d="M36.1541 49.6563L35.5188 27.6971L32.1194 30.7485L29.6497 52.4335L36.1541 49.6563Z" fill="url(#paint11_linear_1_18175)"/>
<path d="M22.287 59.522L15.0495 51.5371L8.08618 47.7742L22.287 59.522Z" fill="url(#paint12_linear_1_18175)"/>
<path opacity="0.1" d="M42.2651 39.7691L35.9943 44.929L30.248 47.953L13.6514 45.3248L4.34229 33.9751L8.08618 47.7742L15.0495 51.5372L29.6496 52.4335L36.1099 49.6706L40.7049 47.6944L42.2651 39.7691Z" fill="#0A0C0B"/>
<g style="mix-blend-mode:overlay">
<path opacity="0.15" d="M14.9041 17.0924L28.2991 12.5046L24.4122 11.2638H24.4098L15.5549 16.1865L14.9041 17.0924Z" fill="white"/>
<path opacity="0.15" d="M30.5053 15.8301L12.1602 20.909L13.1936 19.4727L30.0131 13.625L30.5053 15.8301Z" fill="white"/>
<path opacity="0.15" d="M29.9022 13.1363L13.9993 18.3523L14.4415 17.736L29.4492 12.8717H29.4516L29.8736 13.0076L29.9022 13.1363Z" fill="white"/>
<path opacity="0.15" d="M11.5034 21.8232L30.6996 16.7014L30.6186 16.3379L11.6715 21.5896L11.5034 21.8232Z" fill="white"/>
<path opacity="0.15" d="M31.8427 21.803L16.8123 25.8139L16.2485 25.7543L31.764 21.4537L31.8427 21.803Z" fill="white"/>
</g>
<path d="M16.6216 9.42346L20.4394 7.27319L22.0115 10.4986L17.9685 12.8276L16.6216 9.42346Z" fill="url(#paint13_linear_1_18175)"/>
<path d="M32.1229 30.764L35.4926 27.7174L32.1194 23.0426L29.6497 27.1643L32.1229 30.764Z" fill="url(#paint14_linear_1_18175)"/>
<path d="M29.8738 13.0076L29.7236 6.9895L22.0117 10.4986L29.8738 13.0076Z" fill="url(#paint15_linear_1_18175)"/>
<g style="mix-blend-mode:color-burn" opacity="0.1">
<path d="M29.9916 49.4179L29.7401 51.6266L11.414 35.024L10.9646 32.9894L29.9916 49.4179Z" fill="url(#paint16_linear_1_18175)"/>
<path d="M13.1375 42.8586L23.8125 52.0747L21.1115 51.9091L13.6405 45.1424L13.1375 42.8586Z" fill="url(#paint17_linear_1_18175)"/>
<path d="M9.6499 27.0142L30.4958 45.0125V45.0149L30.1132 48.3583L10.551 31.1109L9.6499 27.0142Z" fill="url(#paint18_linear_1_18175)"/>
<path d="M31.1001 39.6917L30.8557 41.8431L12.6846 25.38L14.7812 25.6005H14.7824L31.1001 39.6917Z" fill="url(#paint19_linear_1_18175)"/>
<path d="M31.7081 34.372L31.6354 34.9966L21.4109 26.299L22.7673 26.4408L31.7081 34.372Z" fill="url(#paint20_linear_1_18175)"/>
</g>
<path opacity="0.75" d="M32.1847 23.4776C32.0858 23.4776 32.0691 23.3596 32.0512 23.2798L29.7758 12.9575C29.7556 12.8669 29.7341 12.7692 29.8044 12.7621C29.8438 12.7585 29.8628 12.8634 29.8831 12.9528L32.2503 23.2595C32.2706 23.3501 32.3349 23.4585 32.2217 23.4752C32.2098 23.4764 32.1967 23.4776 32.1847 23.4776Z" fill="white"/>
<path d="M32.0822 30.6996L32.1823 30.6948L29.6519 52.449L32.0822 30.6996Z" fill="url(#paint21_linear_1_18175)"/>
<path d="M35.4926 27.7174L46.2951 19.3798L35.458 27.6876L35.4926 27.7174Z" fill="white"/>
<path d="M46.295 19.3798L45.6407 22.927L44.9672 26.4718L43.5905 33.5543L42.1721 40.6297L41.4486 44.1638L40.7048 47.6944L41.3592 44.1459L42.0327 40.6011L43.4094 33.5186L44.8278 26.4444L45.5525 22.9103L46.295 19.3798Z" fill="white"/>
<path d="M0 17.6669C0.395725 17.1972 0.800985 16.736 1.20148 16.2699L2.41726 14.8861C3.22778 13.9635 4.05022 13.0517 4.87147 12.1386C5.69629 11.2292 6.52231 10.3197 7.35786 9.41982L8.61298 8.07054C9.03612 7.62595 9.45449 7.17539 9.88239 6.73438C9.48667 7.204 9.08141 7.66528 8.68092 8.13133L7.46514 9.51518C6.65461 10.4377 5.83217 11.3496 5.00973 12.2626C4.18491 13.1721 3.35889 14.0815 2.52334 14.9814L1.26823 16.3307C0.846279 16.7765 0.427907 17.2259 0 17.6669Z" fill="white"/>
</g>
<defs>
<linearGradient id="paint0_linear_1_18175" x1="22.5001" y1="24.5998" x2="20.4001" y2="53.9998" gradientUnits="userSpaceOnUse">
<stop stop-color="#C6A152"/>
<stop offset="0.265" stop-color="#C8A354"/>
<stop offset="0.52" stop-color="#E1C97D"/>
<stop offset="0.765" stop-color="#B79046"/>
<stop offset="1" stop-color="#D6B968"/>
</linearGradient>
<linearGradient id="paint1_linear_1_18175" x1="23.4001" y1="8.69971" x2="20.4001" y2="30.2997" gradientUnits="userSpaceOnUse">
<stop stop-color="#C6A152"/>
<stop offset="0.265" stop-color="#C8A354"/>
<stop offset="0.52" stop-color="#E1C97D"/>
<stop offset="0.765" stop-color="#B79046"/>
<stop offset="1" stop-color="#D6B968"/>
</linearGradient>
<linearGradient id="paint2_linear_1_18175" x1="12.9" y1="3.59998" x2="18.9" y2="13.8" gradientUnits="userSpaceOnUse">
<stop stop-color="#C6A152"/>
<stop offset="0.265" stop-color="#C8A354"/>
<stop offset="0.52" stop-color="#E1C97D"/>
<stop offset="0.765" stop-color="#B79046"/>
<stop offset="1" stop-color="#D6B968"/>
</linearGradient>
<linearGradient id="paint3_linear_1_18175" x1="15" y1="5.40024" x2="2.1" y2="24.0002" gradientUnits="userSpaceOnUse">
<stop stop-color="#C6A152"/>
<stop offset="0.265" stop-color="#C8A354"/>
<stop offset="0.52" stop-color="#E1C97D"/>
<stop offset="0.765" stop-color="#B79046"/>
<stop offset="1" stop-color="#D6B968"/>
</linearGradient>
<linearGradient id="paint4_linear_1_18175" x1="7.52473" y1="17.6669" x2="7.52473" y2="51.5371" gradientUnits="userSpaceOnUse">
<stop stop-color="#C6A152"/>
<stop offset="0.265" stop-color="#C8A354"/>
<stop offset="0.52" stop-color="#E1C97D"/>
<stop offset="0.765" stop-color="#B79046"/>
<stop offset="1" stop-color="#D6B968"/>
</linearGradient>
<linearGradient id="paint5_linear_1_18175" x1="20.7001" y1="42.8998" x2="20.4001" y2="61.1998" gradientUnits="userSpaceOnUse">
<stop stop-color="#C6A152"/>
<stop offset="0.265" stop-color="#C8A354"/>
<stop offset="0.52" stop-color="#E1C97D"/>
<stop offset="0.68" stop-color="#BA944A"/>
<stop offset="0.955" stop-color="#B79046"/>
</linearGradient>
<linearGradient id="paint6_linear_1_18175" x1="33.2999" y1="47.1002" x2="35.0999" y2="60.0002" gradientUnits="userSpaceOnUse">
<stop stop-color="#C6A152"/>
<stop offset="0.265" stop-color="#C8A354"/>
<stop offset="0.44" stop-color="#E1C97D"/>
<stop offset="0.6" stop-color="#B79046"/>
</linearGradient>
<linearGradient id="paint7_linear_1_18175" x1="36.9001" y1="25.1999" x2="43.5001" y2="50.9999" gradientUnits="userSpaceOnUse">
<stop stop-color="#C6A152"/>
<stop offset="0.265" stop-color="#C8A354"/>
<stop offset="0.52" stop-color="#E1C97D"/>
<stop offset="0.765" stop-color="#B79046"/>
<stop offset="1" stop-color="#D6B968"/>
</linearGradient>
<linearGradient id="paint8_linear_1_18175" x1="30" y1="11.9998" x2="42.3" y2="26.0998" gradientUnits="userSpaceOnUse">
<stop stop-color="#C6A152"/>
<stop offset="0.265" stop-color="#C8A354"/>
<stop offset="0.52" stop-color="#E1C97D"/>
<stop offset="0.765" stop-color="#B79046"/>
<stop offset="1" stop-color="#D6B968"/>
</linearGradient>
<linearGradient id="paint9_linear_1_18175" x1="31.8001" y1="11.4" x2="48.3001" y2="13.8" gradientUnits="userSpaceOnUse">
<stop stop-color="#C6A152"/>
<stop offset="0.265" stop-color="#C8A354"/>
<stop offset="0.52" stop-color="#E1C97D"/>
<stop offset="0.765" stop-color="#B79046"/>
<stop offset="1" stop-color="#D6B968"/>
</linearGradient>
<linearGradient id="paint10_linear_1_18175" x1="29.4001" y1="2.09998" x2="24.3001" y2="17.1" gradientUnits="userSpaceOnUse">
<stop stop-color="#C6A152"/>
<stop offset="0.265" stop-color="#C8A354"/>
<stop offset="0.52" stop-color="#E1C97D"/>
<stop offset="0.765" stop-color="#B79046"/>
<stop offset="1" stop-color="#D6B968"/>
</linearGradient>
<linearGradient id="paint11_linear_1_18175" x1="32.9019" y1="27.6971" x2="32.9019" y2="52.4335" gradientUnits="userSpaceOnUse">
<stop stop-color="#C6A152"/>
<stop offset="0.265" stop-color="#C8A354"/>
<stop offset="0.52" stop-color="#E1C97D"/>
<stop offset="0.765" stop-color="#B79046"/>
<stop offset="1" stop-color="#D6B968"/>
</linearGradient>
<linearGradient id="paint12_linear_1_18175" x1="10.5001" y1="46.1998" x2="15.1866" y2="59.522" gradientUnits="userSpaceOnUse">
<stop stop-color="#B1A17F"/>
<stop offset="0.265" stop-color="#C8A354"/>
<stop offset="0.52" stop-color="#E1C97D"/>
<stop offset="0.725" stop-color="#B79046"/>
<stop offset="1" stop-color="#B79046"/>
</linearGradient>
<linearGradient id="paint13_linear_1_18175" x1="20.6196" y1="8.87656" x2="17.5565" y2="11.4256" gradientUnits="userSpaceOnUse">
<stop offset="0.00558659" stop-color="white"/>
<stop offset="0.1508" stop-color="white"/>
<stop offset="1" stop-color="white"/>
</linearGradient>
<linearGradient id="paint14_linear_1_18175" x1="33.401" y1="25.8389" x2="30.6281" y2="28.1464" gradientUnits="userSpaceOnUse">
<stop offset="0.00558659" stop-color="white"/>
<stop offset="0.1508" stop-color="white"/>
<stop offset="1" stop-color="white"/>
</linearGradient>
<linearGradient id="paint15_linear_1_18175" x1="29.5111" y1="10.0206" x2="24.7606" y2="10.3918" gradientUnits="userSpaceOnUse">
<stop offset="0.00558659" stop-color="white"/>
<stop offset="0.1508" stop-color="white"/>
<stop offset="1" stop-color="white"/>
</linearGradient>
<linearGradient id="paint16_linear_1_18175" x1="22.7861" y1="40.1473" x2="11.3567" y2="50.2949" gradientUnits="userSpaceOnUse">
<stop offset="0.2039"/>
<stop offset="0.235" stop-color="#222222"/>
<stop offset="0.2829" stop-color="#505050"/>
<stop offset="0.3352" stop-color="#7A7A7A"/>
<stop offset="0.391" stop-color="#9E9E9E"/>
<stop offset="0.451" stop-color="#BCBCBC"/>
<stop offset="0.5166" stop-color="#D5D5D5"/>
<stop offset="0.5901" stop-color="#E8E8E8"/>
<stop offset="0.676" stop-color="#F5F5F5"/>
<stop offset="0.7855" stop-color="#FDFDFD"/>
<stop offset="1" stop-color="white"/>
</linearGradient>
<linearGradient id="paint17_linear_1_18175" x1="19.5696" y1="46.4954" x2="11.6514" y2="53.5255" gradientUnits="userSpaceOnUse">
<stop offset="0.2039"/>
<stop offset="0.235" stop-color="#222222"/>
<stop offset="0.2829" stop-color="#505050"/>
<stop offset="0.3352" stop-color="#7A7A7A"/>
<stop offset="0.391" stop-color="#9E9E9E"/>
<stop offset="0.451" stop-color="#BCBCBC"/>
<stop offset="0.5166" stop-color="#D5D5D5"/>
<stop offset="0.5901" stop-color="#E8E8E8"/>
<stop offset="0.676" stop-color="#F5F5F5"/>
<stop offset="0.7855" stop-color="#FDFDFD"/>
<stop offset="1" stop-color="white"/>
</linearGradient>
<linearGradient id="paint18_linear_1_18175" x1="22.9698" y1="34.9177" x2="8.81104" y2="47.6088" gradientUnits="userSpaceOnUse">
<stop offset="0.2039"/>
<stop offset="0.235" stop-color="#222222"/>
<stop offset="0.2829" stop-color="#505050"/>
<stop offset="0.3352" stop-color="#7A7A7A"/>
<stop offset="0.391" stop-color="#9E9E9E"/>
<stop offset="0.451" stop-color="#BCBCBC"/>
<stop offset="0.5166" stop-color="#D5D5D5"/>
<stop offset="0.5901" stop-color="#E8E8E8"/>
<stop offset="0.676" stop-color="#F5F5F5"/>
<stop offset="0.7855" stop-color="#FDFDFD"/>
<stop offset="1" stop-color="white"/>
</linearGradient>
<linearGradient id="paint19_linear_1_18175" x1="24.2799" y1="31.3771" x2="14.536" y2="40.0502" gradientUnits="userSpaceOnUse">
<stop offset="0.2039"/>
<stop offset="0.235" stop-color="#222222"/>
<stop offset="0.2829" stop-color="#505050"/>
<stop offset="0.3352" stop-color="#7A7A7A"/>
<stop offset="0.391" stop-color="#9E9E9E"/>
<stop offset="0.451" stop-color="#BCBCBC"/>
<stop offset="0.5166" stop-color="#D5D5D5"/>
<stop offset="0.5901" stop-color="#E8E8E8"/>
<stop offset="0.676" stop-color="#F5F5F5"/>
<stop offset="0.7855" stop-color="#FDFDFD"/>
<stop offset="1" stop-color="white"/>
</linearGradient>
<linearGradient id="paint20_linear_1_18175" x1="28.2294" y1="29.0753" x2="22.1231" y2="34.7027" gradientUnits="userSpaceOnUse">
<stop offset="0.2039"/>
<stop offset="0.235" stop-color="#222222"/>
<stop offset="0.2829" stop-color="#505050"/>
<stop offset="0.3352" stop-color="#7A7A7A"/>
<stop offset="0.391" stop-color="#9E9E9E"/>
<stop offset="0.451" stop-color="#BCBCBC"/>
<stop offset="0.5166" stop-color="#D5D5D5"/>
<stop offset="0.5901" stop-color="#E8E8E8"/>
<stop offset="0.676" stop-color="#F5F5F5"/>
<stop offset="0.7855" stop-color="#FDFDFD"/>
<stop offset="1" stop-color="white"/>
</linearGradient>
<linearGradient id="paint21_linear_1_18175" x1="35.0088" y1="38.1273" x2="26.0996" y2="45.5412" gradientUnits="userSpaceOnUse">
<stop offset="0.00558659" stop-color="white"/>
<stop offset="0.1508" stop-color="white"/>
<stop offset="1" stop-color="white"/>
<stop offset="1" stop-color="white"/>
</linearGradient>
<clipPath id="clip0_1_18175">
<rect width="46.295" height="60" fill="white"/>
</clipPath>
</defs>
</svg>
