<svg width="52" height="60" viewBox="0 0 52 60" fill="none" xmlns="http://www.w3.org/2000/svg">
<path d="M34.4634 31.4928L34.4542 31.816L34.2353 39.2734L34.0863 44.3425V44.3436L33.997 47.4094L31.196 58.9961L28.6448 56.9618L25.4931 54.4508L20.4218 50.4086L14.0932 45.3636L12.5185 44.1076L12.3959 39.7812V39.78L12.2377 34.2239L10.8 33.0002L16.8 26.7002H17.1L20.7 23.1002L28.8225 15.2668L30.3857 14.1471L31.1536 15.3436L31.651 17.771L32.0452 19.6918L32.6675 22.73L33.2302 25.476L33.9225 28.8523L34.4634 31.4928Z" fill="url(#paint0_linear_1_18386)"/>
<path d="M45.5837 0L43.7167 11.8583L42.5764 19.0958L42.0549 22.4033L41.7535 24.3172L39.2597 40.1513L34.4634 31.4928L31.1536 15.3435L32.6171 14.2181L32.8085 10.4831L33.4388 9.96619L34.6273 8.99089L36.9274 7.10332L40.0436 4.54644L45.5837 0Z" fill="url(#paint1_linear_1_18386)"/>
<path d="M45.5835 0L51.3035 43.5299L39.2595 40.1513L45.5835 0Z" fill="url(#paint2_linear_1_18386)"/>
<path d="M51.3035 43.5298L31.1958 58.996L31.7276 56.7956L32.2972 54.4393L32.5734 53.2955L33.1132 51.0687V51.0675L33.9968 47.4093L37.1382 40.4057L39.2595 40.1512L43.0668 41.2194L45.0208 41.7672L48.8716 42.8479L51.3035 43.5298Z" fill="url(#paint3_linear_1_18386)"/>
<path d="M31.196 58.9961L12.5186 44.1075L14.4451 60L31.196 58.9961Z" fill="url(#paint4_linear_1_18386)"/>
<path d="M0 39.2596L12.5185 44.1075L14.445 60L0 39.2596Z" fill="url(#paint5_linear_1_18386)"/>
<path d="M12.2377 34.2238L10.8 33L7.55487 33.9969L0 39.2597L12.5185 44.1075L12.2377 34.2238Z" fill="url(#paint6_linear_1_18386)"/>
<path d="M32.8084 10.483L32.617 14.2181L31.1535 15.3435L30.3856 14.1459L28.8224 15.2667L28.168 12.5769L30.6011 10.9644L32.8084 10.483Z" fill="url(#paint7_linear_1_18386)"/>
<path d="M11.0561 30.6653L9.97765 11.2074L0 39.2597L7.55487 33.9969L11.0561 30.6653Z" fill="url(#paint8_linear_1_18386)"/>
<path d="M45.5835 0L43.8323 1.43717L42.7057 2.3609L40.6405 4.05593L37.8052 6.38473L35.0798 8.61956L33.7813 9.6854L32.8083 10.4831L30.601 10.9644L28.1679 12.5769L9.97754 11.2074L19.2423 8.29179H19.2446L21.4508 7.59613L27.6877 5.63291H27.6888L32.8037 4.02269L40.589 1.5724L41.3156 1.34319L45.5835 0Z" fill="url(#paint9_linear_1_18386)"/>
<path d="M37.1382 40.4058L34.4633 31.4928L33.9968 47.4094L37.1382 40.4058Z" fill="url(#paint10_linear_1_18386)"/>
<path d="M39.2597 40.1513L34.4634 31.4928L37.1383 40.4058L39.2597 40.1513Z" fill="url(#paint11_linear_1_18386)"/>
<path d="M0 39.2597L7.55487 33.9969L10.8 33.0002L9.97765 11.2074L0 39.2597Z" fill="url(#paint12_linear_1_18386)"/>
<path opacity="0.15" d="M39.2595 40.1513L32.6169 14.2181L41.2124 27.6306L39.2595 40.1513Z" fill="url(#paint13_linear_1_18386)"/>
<path d="M11.056 30.6653L9.98671 11.204L9.97754 11.2074L11.056 30.6653Z" fill="#F8F8F8"/>
<path d="M17.0304 11.73L9.97754 11.2074L11.056 30.6653L17.0304 11.73Z" fill="url(#paint14_linear_1_18386)"/>
<path d="M10.8 33.0003L28.8225 15.2668L28.1681 12.577L22.3438 12.1392L10.8 33.0003Z" fill="url(#paint15_linear_1_18386)"/>
<path d="M10.8 33.0001L10.9759 35.2657L10.8074 36.6455L10.7123 37.4248L10.5094 39.0821L10.1232 42.2521L0 39.2597L1.41081 38.2764L2.87319 37.2575L4.06739 36.4255H4.06853L5.32577 35.5499H5.32692L7.55487 33.997L10.8 33.0001Z" fill="url(#paint16_linear_1_18386)"/>
<path d="M12.5185 44.1075L10.2 41.3398L0 39.2596L12.5185 44.1075Z" fill="url(#paint17_linear_1_18386)"/>
<path opacity="0.1" d="M42.0548 22.4033L41.7534 24.3172L33.4387 9.96615L34.6272 8.99084L42.0548 22.4033Z" fill="white"/>
<path opacity="0.1" d="M43.7168 11.8583L42.5765 19.0957L36.9275 7.10326L40.0436 4.54639L43.7168 11.8583Z" fill="white"/>
<path opacity="0.15" d="M35.0798 8.61951L33.7813 9.68535L19.2446 8.29173L21.4508 7.59607L35.0798 8.61951Z" fill="white"/>
<path opacity="0.15" d="M40.6407 4.05594L37.8053 6.38475L27.689 5.63293L32.8039 4.02271L40.6407 4.05594Z" fill="white"/>
<path opacity="0.15" d="M43.8325 1.43712L42.7059 2.36085L40.5891 1.57235L41.3157 1.34314L43.8325 1.43712Z" fill="white"/>
<path d="M33.9968 47.4093L34.6764 56.1801L40.675 51.6532L39.2596 40.1512L37.6677 42.401L33.9968 47.4093Z" fill="url(#paint18_linear_1_18386)"/>
<path d="M37.1382 40.4057L33.9968 47.4093L39.2596 40.1512L37.1382 40.4057Z" fill="url(#paint19_linear_1_18386)"/>
<path d="M34.2353 39.2734L34.0863 44.3425V44.3436L28.6436 56.9618L25.4919 54.4508C27.4861 51.3587 32.5838 42.2417 34.2353 39.2734Z" fill="url(#paint20_linear_1_18386)"/>
<path d="M34.4542 31.816L31.1536 15.3436L32.6171 14.2181L34.4542 31.816Z" fill="url(#paint21_linear_1_18386)"/>
<path d="M32.6171 14.2181L34.4542 31.816L31.1536 15.3436L32.6171 14.2181Z" fill="url(#paint22_linear_1_18386)"/>
<path opacity="0.5" d="M45.3716 41.9197L49.8298 32.311L51.3036 43.5299L45.3716 41.9197Z" fill="url(#paint23_linear_1_18386)"/>
<path d="M51.3035 43.5298L46.9565 23.641L39.2595 40.1512L51.3035 43.5298Z" fill="url(#paint24_linear_1_18386)"/>
<path d="M45.5836 0L32.5012 10.6103L32.7877 10.7593L45.5836 0Z" fill="white"/>
<path d="M51.3035 43.5299L45.2019 15.4066L39.2595 40.1513L51.3035 43.5299Z" fill="url(#paint25_linear_1_18386)"/>
<path d="M28.8225 15.2667L12.2378 34.2238L12.5186 44.1075L31.196 58.996L28.8225 15.2667Z" fill="url(#paint26_linear_1_18386)"/>
<path d="M32.8085 10.483L32.6171 14.2181L31.1536 15.3435L30.3857 14.1459L32.8085 10.483Z" fill="url(#paint27_linear_1_18386)"/>
<path d="M30.6011 10.9644L28.168 12.5769L28.8224 15.2667L30.3856 14.1458L30.6011 10.9644Z" fill="url(#paint28_linear_1_18386)"/>
<path d="M30.6012 10.9644L30.3857 14.1459L32.8085 10.483L30.6012 10.9644Z" fill="url(#paint29_linear_1_18386)"/>
<path d="M28.1635 12.6365L9.97314 11.2658L9.98117 11.1489L28.1727 12.5185L28.1635 12.6365Z" fill="url(#paint30_linear_1_18386)"/>
<path d="M13.0295 28.2241L17.4442 14.3877L24.9991 14.3029L13.0295 28.2241Z" fill="url(#paint31_linear_1_18386)"/>
<path d="M11.5867 11.9695L22.1981 13.3276L12.5207 30.177L11.5867 11.9695Z" fill="url(#paint32_linear_1_18386)"/>
<path d="M27.2488 13.5396L12.5208 30.1771L20.118 12.3936L27.2488 13.5396Z" fill="url(#paint33_linear_1_18386)"/>
<path d="M10.2856 11.1428L28.476 12.5135L11.1126 32.877L10.2856 11.1428Z" fill="url(#paint34_linear_1_18386)"/>
<defs>
<linearGradient id="paint0_linear_1_18386" x1="21.3172" y1="19.5578" x2="24.2457" y2="44.1322" gradientUnits="userSpaceOnUse">
<stop stop-color="#FCC12D"/>
<stop offset="1" stop-color="#FB7332"/>
</linearGradient>
<linearGradient id="paint1_linear_1_18386" x1="38.7977" y1="4.03901" x2="34.9778" y2="36.3807" gradientUnits="userSpaceOnUse">
<stop stop-color="#FCC12D"/>
<stop offset="1" stop-color="#FB7332"/>
</linearGradient>
<linearGradient id="paint2_linear_1_18386" x1="41.4447" y1="18.2009" x2="52.395" y2="39.2102" gradientUnits="userSpaceOnUse">
<stop stop-color="#FCC12D"/>
<stop offset="1" stop-color="#FB7332"/>
</linearGradient>
<linearGradient id="paint3_linear_1_18386" x1="41.409" y1="51.4754" x2="36.0895" y2="44.4015" gradientUnits="userSpaceOnUse">
<stop stop-color="#FC3200"/>
<stop offset="1" stop-color="#E06124"/>
</linearGradient>
<linearGradient id="paint4_linear_1_18386" x1="22.9015" y1="60.0535" x2="21.2462" y2="48.7212" gradientUnits="userSpaceOnUse">
<stop stop-color="#FC3200"/>
<stop offset="1" stop-color="#E06124"/>
</linearGradient>
<linearGradient id="paint5_linear_1_18386" x1="10.597" y1="59.1675" x2="6.39514" y2="42.2327" gradientUnits="userSpaceOnUse">
<stop stop-color="#FC3200"/>
<stop offset="1" stop-color="#E06124"/>
</linearGradient>
<linearGradient id="paint6_linear_1_18386" x1="5.22671" y1="35.2695" x2="11.1704" y2="45.0765" gradientUnits="userSpaceOnUse">
<stop stop-color="#FCC12D"/>
<stop offset="1" stop-color="#FB7332"/>
</linearGradient>
<linearGradient id="paint7_linear_1_18386" x1="29.8892" y1="11.3464" x2="32.0245" y2="14.8697" gradientUnits="userSpaceOnUse">
<stop stop-color="#FCEF9C"/>
<stop offset="1" stop-color="#EDE59C"/>
</linearGradient>
<linearGradient id="paint8_linear_1_18386" x1="0.0086301" y1="17.0167" x2="9.97865" y2="33.4672" gradientUnits="userSpaceOnUse">
<stop stop-color="#FCBB44"/>
<stop offset="1" stop-color="#EDD500"/>
</linearGradient>
<linearGradient id="paint9_linear_1_18386" x1="25.4206" y1="1.70953" x2="31.3617" y2="11.5122" gradientUnits="userSpaceOnUse">
<stop stop-color="#FCBB44"/>
<stop offset="1" stop-color="#EDD500"/>
</linearGradient>
<linearGradient id="paint10_linear_1_18386" x1="36.15" y1="39.3976" x2="34.622" y2="39.4401" gradientUnits="userSpaceOnUse">
<stop stop-color="#A13210"/>
<stop offset="1" stop-color="#CC2900"/>
</linearGradient>
<linearGradient id="paint11_linear_1_18386" x1="37.8309" y1="35.893" x2="35.7439" y2="35.9509" gradientUnits="userSpaceOnUse">
<stop stop-color="#A13210"/>
<stop offset="1" stop-color="#CC2900"/>
</linearGradient>
<linearGradient id="paint12_linear_1_18386" x1="6.8225" y1="15.271" x2="5.6341" y2="33.3518" gradientUnits="userSpaceOnUse">
<stop stop-color="#D97F00"/>
<stop offset="1" stop-color="#ED7300"/>
</linearGradient>
<linearGradient id="paint13_linear_1_18386" x1="29.6856" y1="14.6287" x2="43.324" y2="39.5287" gradientUnits="userSpaceOnUse">
<stop stop-color="white"/>
<stop offset="0.5726" stop-color="#F8F8F8"/>
</linearGradient>
<linearGradient id="paint14_linear_1_18386" x1="6.86998" y1="20.8727" x2="16.619" y2="21.0427" gradientUnits="userSpaceOnUse">
<stop stop-color="white"/>
<stop offset="0.5726" stop-color="#F8F8F8"/>
</linearGradient>
<linearGradient id="paint15_linear_1_18386" x1="24.4905" y1="23.4366" x2="20.4138" y2="20.8887" gradientUnits="userSpaceOnUse">
<stop stop-color="white"/>
<stop offset="0.5726" stop-color="#F8F8F8"/>
</linearGradient>
<linearGradient id="paint16_linear_1_18386" x1="11.389" y1="39.9221" x2="8.88489" y2="38.3517" gradientUnits="userSpaceOnUse">
<stop stop-color="#D97F00"/>
<stop offset="1" stop-color="#E65400"/>
</linearGradient>
<linearGradient id="paint17_linear_1_18386" x1="7.36755" y1="38.9678" x2="6.09429" y2="42.0873" gradientUnits="userSpaceOnUse">
<stop stop-color="#A13210"/>
<stop offset="1" stop-color="#CC2900"/>
</linearGradient>
<linearGradient id="paint18_linear_1_18386" x1="38.2319" y1="54.4281" x2="36.9869" y2="48.2597" gradientUnits="userSpaceOnUse">
<stop stop-color="#FC3200"/>
<stop offset="1" stop-color="#E06124"/>
</linearGradient>
<linearGradient id="paint19_linear_1_18386" x1="35.2551" y1="42.4233" x2="36.4294" y2="43.5834" gradientUnits="userSpaceOnUse">
<stop stop-color="#731B00"/>
<stop offset="1" stop-color="#B02300"/>
</linearGradient>
<linearGradient id="paint20_linear_1_18386" x1="35.2319" y1="42.6255" x2="27.0262" y2="54.5096" gradientUnits="userSpaceOnUse">
<stop stop-color="#750000"/>
<stop offset="0.1343" stop-color="#770404"/>
<stop offset="0.2655" stop-color="#7D1010"/>
<stop offset="0.3954" stop-color="#872323"/>
<stop offset="0.5246" stop-color="#953F3F"/>
<stop offset="0.6533" stop-color="#A66262"/>
<stop offset="0.7816" stop-color="#BC8E8E"/>
<stop offset="0.9072" stop-color="#D6C1C1"/>
<stop offset="1" stop-color="#EBEBEB"/>
</linearGradient>
<linearGradient id="paint21_linear_1_18386" x1="34.5598" y1="15.4273" x2="32.1172" y2="26.7677" gradientUnits="userSpaceOnUse">
<stop stop-color="#FCBB44"/>
<stop offset="1" stop-color="#EDD500"/>
</linearGradient>
<linearGradient id="paint22_linear_1_18386" x1="34.5598" y1="15.4273" x2="32.1172" y2="26.7677" gradientUnits="userSpaceOnUse">
<stop stop-color="white"/>
<stop offset="0.5726" stop-color="#F8F8F8"/>
</linearGradient>
<linearGradient id="paint23_linear_1_18386" x1="48.2546" y1="43.3106" x2="49.4996" y2="34.539" gradientUnits="userSpaceOnUse">
<stop stop-color="#FFCCCC"/>
<stop offset="0.3956" stop-color="#FFEEEE"/>
<stop offset="0.5726" stop-color="white"/>
<stop offset="1" stop-color="#F8F8F8"/>
</linearGradient>
<linearGradient id="paint24_linear_1_18386" x1="41.2298" y1="42.1838" x2="53.3968" y2="28.9415" gradientUnits="userSpaceOnUse">
<stop stop-color="#FFCCCC"/>
<stop offset="0.3956" stop-color="#FFEEEE"/>
<stop offset="0.5726" stop-color="white"/>
<stop offset="1" stop-color="#F8F8F8"/>
</linearGradient>
<linearGradient id="paint25_linear_1_18386" x1="47.4914" y1="44.3817" x2="35.5225" y2="6.60748" gradientUnits="userSpaceOnUse">
<stop stop-color="#FFCCCC"/>
<stop offset="0.3956" stop-color="#FFEEEE"/>
<stop offset="0.5726" stop-color="white"/>
<stop offset="1" stop-color="#F8F8F8"/>
</linearGradient>
<linearGradient id="paint26_linear_1_18386" x1="11.752" y1="40.8215" x2="23.024" y2="38.5431" gradientUnits="userSpaceOnUse">
<stop stop-color="#CC0000"/>
<stop offset="1" stop-color="#8C2A2A"/>
</linearGradient>
<linearGradient id="paint27_linear_1_18386" x1="32.9417" y1="13.2837" x2="31.1804" y2="12.6046" gradientUnits="userSpaceOnUse">
<stop stop-color="white"/>
<stop offset="0.5726" stop-color="#F8F8F8"/>
</linearGradient>
<linearGradient id="paint28_linear_1_18386" x1="27.4774" y1="12.6773" x2="32.7687" y2="13.7153" gradientUnits="userSpaceOnUse">
<stop stop-color="white"/>
<stop offset="0.5726" stop-color="#F8F8F8"/>
</linearGradient>
<linearGradient id="paint29_linear_1_18386" x1="31.764" y1="10.4507" x2="31.1698" y2="13.2095" gradientUnits="userSpaceOnUse">
<stop stop-color="white"/>
<stop offset="0.5726" stop-color="#F8F8F8"/>
</linearGradient>
<linearGradient id="paint30_linear_1_18386" x1="27.2369" y1="15.04" x2="10.9085" y2="8.74465" gradientUnits="userSpaceOnUse">
<stop stop-color="#FCBB44"/>
<stop offset="1" stop-color="#EDE7B2"/>
</linearGradient>
<linearGradient id="paint31_linear_1_18386" x1="15.4927" y1="15.453" x2="20.5494" y2="23.7967" gradientUnits="userSpaceOnUse">
<stop stop-color="#FFCCCC"/>
<stop offset="0.3956" stop-color="#FFEEEE"/>
<stop offset="0.5726" stop-color="white"/>
<stop offset="1" stop-color="#F8F8F8"/>
</linearGradient>
<linearGradient id="paint32_linear_1_18386" x1="11.3843" y1="11.8936" x2="19.8901" y2="25.9282" gradientUnits="userSpaceOnUse">
<stop stop-color="#FFCCCC"/>
<stop offset="0.3956" stop-color="#FFEEEE"/>
<stop offset="0.5726" stop-color="white"/>
<stop offset="1" stop-color="#F8F8F8"/>
</linearGradient>
<linearGradient id="paint33_linear_1_18386" x1="15.6904" y1="14.9377" x2="21.6614" y2="24.7899" gradientUnits="userSpaceOnUse">
<stop stop-color="#FFCCCC"/>
<stop offset="0.3956" stop-color="#FFEEEE"/>
<stop offset="0.5726" stop-color="white"/>
<stop offset="1" stop-color="#F8F8F8"/>
</linearGradient>
<linearGradient id="paint34_linear_1_18386" x1="24.3788" y1="23.1407" x2="8.08211" y2="16.8576" gradientUnits="userSpaceOnUse">
<stop stop-color="#FFCCCC"/>
<stop offset="0.3956" stop-color="#FFEEEE"/>
<stop offset="0.5726" stop-color="white"/>
<stop offset="1" stop-color="#F8F8F8"/>
</linearGradient>
</defs>
</svg>
