<svg width="13" height="12" viewBox="0 0 13 12" fill="none" xmlns="http://www.w3.org/2000/svg">
<path d="M10.2265 6.82203C10.0773 6.87253 10.0162 6.92304 9.53082 7.40645L9.03468 7.90428L9.0958 8.02333C9.25039 8.32456 9.25039 8.65465 9.09759 8.96309C9.0203 9.12002 8.82795 9.31302 8.67155 9.39058C8.44865 9.50241 8.43067 9.50422 7.44916 9.50422H6.55574L6.51799 9.46273C6.46406 9.40501 6.46586 9.3058 6.51979 9.2553C6.56113 9.21562 6.56473 9.21562 7.39883 9.21562C7.88779 9.21562 8.27608 9.2084 8.3318 9.19758C8.7884 9.111 9.03647 8.6312 8.85132 8.19469C8.80278 8.08286 8.64639 7.92232 8.52595 7.86099C8.47022 7.83394 8.37315 7.80147 8.31023 7.79065C8.22934 7.77622 7.70802 7.77261 6.57731 7.77802C5.09247 7.78343 4.94866 7.78704 4.83361 7.8159C4.56936 7.88444 4.32488 8.02694 4.09299 8.247L3.95996 8.37506L4.95405 9.37254L5.94814 10.3718L7.32333 10.3664C8.68414 10.3592 8.70032 10.3592 8.84233 10.3195C9.09939 10.2474 9.33668 10.1013 9.51644 9.90826C9.60992 9.80725 9.65486 9.74412 10.4045 8.66006C10.7083 8.21994 10.9761 7.8177 10.9995 7.7672C11.1649 7.40645 11.03 7.01323 10.6903 6.8581C10.5699 6.80219 10.3398 6.78415 10.2265 6.82203Z" fill="#FFC800"/>
<path d="M2.91717 8.81747C2.54404 9.19457 2.42993 9.31845 2.42993 9.35306C2.42993 9.38768 2.69257 9.66276 3.63263 10.6082C4.7194 11.7013 4.84076 11.8179 4.89329 11.8179C4.944 11.8179 5.00377 11.765 5.42218 11.3424C5.8424 10.9216 5.89493 10.8615 5.89493 10.8105C5.89493 10.7576 5.77901 10.6356 4.70129 9.55345C3.86628 8.71363 3.49135 8.34929 3.45693 8.34018C3.40803 8.32925 3.37542 8.35657 2.91717 8.81747Z" fill="#FFC800"/>
<circle cx="6.98989" cy="3.6" r="2.6" stroke="#FFC800" stroke-width="2"/>
<circle cx="6.99009" cy="3.59995" r="2.4" fill="#FFC800"/>
<path d="M7.09532 4.79994C6.91534 4.79994 6.75822 4.74789 6.62338 4.64524C6.48854 4.54259 6.39043 4.40524 6.32843 4.23536C6.26703 4.06548 6.25378 3.88187 6.2899 3.68452L6.64445 1.69946C6.65469 1.62862 6.68418 1.56789 6.73294 1.51657C6.7817 1.46597 6.84491 1.43994 6.92196 1.43994C6.98095 1.43994 7.03392 1.45874 7.07967 1.4956C7.12602 1.53247 7.15913 1.58018 7.17959 1.63874C7.20006 1.69729 7.20367 1.75874 7.19103 1.8238L7.06763 2.51343H7.21391L7.03693 2.60596C7.06763 2.5503 7.10857 2.50115 7.16034 2.45777C7.2115 2.4144 7.26808 2.38259 7.33008 2.3609C7.39148 2.33922 7.4571 2.32837 7.52632 2.32837C7.67019 2.32837 7.79721 2.38187 7.90797 2.48813C8.01813 2.5944 8.09879 2.73536 8.14875 2.91175C8.19872 3.08741 8.20353 3.27102 8.16199 3.46259L8.06929 3.96211C8.03558 4.12837 7.97298 4.27512 7.88028 4.40163C7.78758 4.52813 7.67441 4.62573 7.53897 4.69512C7.40413 4.76452 7.25604 4.79922 7.09412 4.79922L7.09532 4.79994ZM7.13385 4.2397C7.19826 4.2397 7.25725 4.2238 7.31083 4.19127C7.3644 4.15874 7.41135 4.11319 7.45168 4.05464C7.49141 3.99609 7.5179 3.92813 7.53054 3.85078L7.61542 3.365C7.63107 3.27536 7.62745 3.1944 7.60578 3.12211C7.58411 3.04982 7.5486 2.99199 7.49984 2.94862C7.45108 2.90524 7.39209 2.88355 7.32286 2.88355C7.26146 2.88355 7.20367 2.90018 7.1495 2.93416C7.09532 2.96813 7.04957 3.0144 7.01105 3.07295C6.97252 3.13151 6.94664 3.19946 6.934 3.27681L6.84912 3.76259C6.83347 3.84934 6.83588 3.92886 6.85514 4.00331C6.8744 4.07705 6.90871 4.13488 6.95747 4.17681C7.00623 4.21874 7.06522 4.23898 7.13445 4.23898L7.13385 4.2397Z" fill="#0F121D"/>
<path d="M5.81935 4.80522C5.98132 4.96249 6.16548 5.07844 6.36509 5.15554C6.56403 5.23264 6.77641 5.27026 6.98946 5.27088C7.20251 5.27088 7.4149 5.23325 7.61384 5.15554C7.81345 5.07844 7.9976 4.96249 8.15958 4.80522C8.1663 4.79843 8.17705 4.79843 8.18444 4.8046C8.18982 4.80892 8.19117 4.8157 8.18915 4.82125C8.1085 5.03219 7.93174 5.21352 7.71667 5.33502C7.50092 5.45714 7.24486 5.52005 6.99013 5.52005C6.73541 5.52005 6.47934 5.45714 6.2636 5.33502C6.04853 5.21413 5.87177 5.0328 5.79112 4.82125C5.78776 4.81323 5.79246 4.80398 5.80187 4.8009C5.80859 4.79905 5.81599 4.8009 5.82002 4.80522H5.81935Z" fill="#0F121D"/>
</svg>
