<svg width="12" height="13" viewBox="0 0 12 13" fill="none" xmlns="http://www.w3.org/2000/svg">
<path d="M10.1417 6.58986C10.0912 6.54357 10.0314 6.50691 9.9656 6.48199C9.8998 6.45706 9.82934 6.44435 9.75823 6.44458C9.68713 6.44482 9.61677 6.45799 9.55117 6.48334C9.48557 6.5087 9.42602 6.54574 9.37591 6.59236C9.32581 6.63898 9.28614 6.69426 9.25916 6.75505C9.23218 6.81583 9.21842 6.88093 9.21867 6.94663C9.21892 7.01233 9.23318 7.07733 9.26062 7.13794C9.28806 7.19855 9.32816 7.25357 9.37862 7.29986C9.83654 7.71846 10.2 8.21683 10.4481 8.76612C10.6961 9.31541 10.8237 9.90469 10.8236 10.4999C10.8236 11.1099 8.92403 11.9999 5.95297 11.9999C2.98192 11.9999 1.08239 11.1099 1.08239 10.4999C1.08153 9.90861 1.20679 9.32301 1.451 8.77651C1.69522 8.23001 2.05361 7.73333 2.50568 7.31486C2.60647 7.22118 2.66305 7.09445 2.66305 6.96236C2.66305 6.83027 2.60647 6.70354 2.50568 6.60986C2.40428 6.51674 2.26712 6.46446 2.12415 6.46446C1.98118 6.46446 1.84402 6.51674 1.74262 6.60986C1.18797 7.11944 0.748336 7.72569 0.449205 8.39345C0.150073 9.0612 -0.0026015 9.77718 3.35355e-05 10.4999C3.35355e-05 12.1249 3.0685 12.9999 5.95297 12.9999C8.83744 12.9999 11.9059 12.1249 11.9059 10.4999C11.908 9.77249 11.753 9.05204 11.4501 8.38066C11.1472 7.70929 10.7024 7.10048 10.1417 6.58986Z" fill="#27AE60"/>
<path d="M5.95327 6.99988C6.70252 6.99988 7.43493 6.79461 8.0579 6.41002C8.68088 6.02544 9.16642 5.47881 9.45315 4.83927C9.73987 4.19973 9.81489 3.496 9.66872 2.81706C9.52255 2.13813 9.16175 1.51449 8.63196 1.02501C8.10217 0.535522 7.42717 0.202179 6.69232 0.067131C5.95748 -0.0679172 5.19579 0.00139442 4.50358 0.266301C3.81137 0.531208 3.21973 0.979811 2.80347 1.55538C2.38721 2.13096 2.16504 2.80764 2.16504 3.49988C2.16504 4.42814 2.56416 5.31837 3.27459 5.97475C3.98502 6.63113 4.94857 6.99988 5.95327 6.99988ZM5.95327 0.999879C6.48845 0.999879 7.0116 1.1465 7.45658 1.42121C7.90156 1.69591 8.24838 2.08636 8.45318 2.54317C8.65798 2.99999 8.71157 3.50265 8.60716 3.9876C8.50276 4.47256 8.24505 4.91801 7.86662 5.26765C7.4882 5.61728 7.00606 5.85538 6.48117 5.95184C5.95628 6.0483 5.41221 5.9988 4.91778 5.80958C4.42334 5.62036 4.00074 5.29993 3.70342 4.8888C3.40609 4.47768 3.24739 3.99433 3.24739 3.49988C3.24739 2.83684 3.53247 2.20095 4.03993 1.73211C4.54738 1.26327 5.23563 0.999879 5.95327 0.999879Z" fill="#27AE60"/>
</svg>
